<?xml version="1.0" encoding="UTF-8"?><svg id="Layer_2" xmlns="http://www.w3.org/2000/svg" viewBox="0 0 2161.99 961.15"><g id="Layer_1-2"><path d="m313.35,714.49c-.5,1.56-1.08,2.98-1.76,4.27-23.31-13.39-45.98-22.14-67.8-27.12,12.31-13.87,34.18-38.48,36.04-40.36,2.66-2.59,4.82-2.09,9.37-.04,4.51,2.03,8.59,12.21,8.59,12.21,0,0,13.53,25.31,15.5,30.6,1.97,5.28,2.01,14.19.06,20.44M26,338c-4.36-10.36-15.12-9.18-26-6.37v14.05c2.82-2.11,5.84-3.96,9.17-5.2,5.42-2.06,11.96.79,16.83-2.48Zm823.91,12.08c.43-.88-.59-2.35-1.17-2.93-.96.74,1.03,1.98,1.17,2.93ZM502.02,107.88c-1.19.08,5.29,3.09,7.71,3.9.66-1.91-4.7-3.45-7.71-3.9Zm173.07,191.8c-.74.38-1.46.67-2.36.9,1.26,1.4,2.57,2.79,3.9,4.1-.21-1.97-.66-3.67-1.54-5Zm27.84,155.96c0,2.14,2.58,3.23,2.5,6.45,1.99-1.97-.07-6.37-2.5-6.45Zm-11.97-141.27c.36-2.56.67-5.2.81-7.91-1.69,1.76-4.03,2.92-5.79,4.62-.24.07-.68.14-.9.3,2.05.87,4.05,1.89,5.88,2.99Zm-12.06-7.63c.88.88,1.77,1.84,2.79,2.63.52.16.82.45,1.1.75,1.99-1.17,3.83-2.5,4.28-4.4-1.7,0-2.21.88-3.9.88.21-2.86,2.93-3.46,4.55-4.99,1.09-1.92,3-3.24,3.5-5.59-2.55,1.83-6.09,5.21-10.11,3.81-1.1,1.77-1.84,4.19-2.22,6.9Zm13.52-25.64c-3.53,4.43-6.24,9.41-9.33,14.27,5.22-2.08,7.12-8.89,9.33-14.27Zm-10.14,6.62c1.26.36,1.76-1.69,2.05-2.72-1.02.58-1.32,1.84-2.05,2.72Zm10.35-11.17c-1.68,1.1-2.11,3.03-3.66,4.13-1.9,5.42-6.04,9.02-8.74,13.73,5.66-4.86,8.74-11.98,12.84-18.15-.21,0-.44.08-.44.29Zm-2.56,163.01c.07,2.8.14,6.02,1.1,8.3.14-3.67.95-8.23,2.14-11.68-1.1,1.02-2,2.36-3.24,3.38Zm3.74,8.83c-.59,1.52.81,2.77.89,4.47,1.24.88,2.5,1.83,3.73,2.79,1.69,1.61,2.36,4.56,4.57,5.5-1.77-6.1-6.33-8.29-9.19-12.76Zm11.31-25.07c-4.11,6.24-7.21,13.52-3.02,23.23,1.85,2.64,4.71,3.81,7.79,4.92-1.39-9.62-2.64-19.32-4.77-28.15Zm107.92-152.57c.21,4.04,2.41,9.93,4.17,13.52.59-3.98-2.12-10.28-4.17-13.52Zm4.69,1.98c-.37.15-.52.36-.52.74,1.03,2.93,1.69,6.38,2.43,9.62.36-.88.88-1.85,1.39-2.86-1.03-2.74-2.14-5.15-3.31-7.5Zm-141.48,426.4c1.88.73,3.85,1.33,6.02,1.71,1.17,4.53,2.29,9.1,3.36,13.71l-9.38-15.42Zm71.7,76.68c-.49-15.42-2.32-31.8-.52-46.46,0-.36,0-.73.59-.6.72.9,2.28,1.19,3.81,1.26,3.38,14.33,3.97,29.87,3.62,45.81h-7.5Zm83.68-422.86c3.15,4.55,7.04,8.15,9.76,12.84.36.9-.52.83-.45,1.49,1.69,1.17,2.59,3.52,4.85,4.05-1.24-11.19-5.95-18.67-11.38-25.13-.88,2.2-1.83,4.55-2.78,6.76Zm215.64,320.76c.82-1.95,1.39-3.39,1.62-4.09,1.03-3.31,3.26-9.66,4.58-10.27,1.34-.76,3.81-7.31,4.58-10.51.74-3.23,3.39-15.35,3.98-23.57.61-8.17,1.37-12.64,1.94-20.26.59-7.67.74-21.82.88-28.96.14-7.11.14-20.41-.57-28.23-.77-7.76.11-14.07.28-15.97.15-1.9-.9-2.97-1.16-4.57-.33-1.61-1.8-11.81-1.8-14.11s-1.9-9.44-2.21-12.64c-.32-3.21-1.34-9.91-1.48-12.92-.17-2.98,0-6.95,0-9.7s1.34-6.31,1.03-8.58c-.32-2.29-.15-5.28-.15-8.09s-.42-4.32-1.04-6.8c-.58-2.6-.71-5.14-.71-5.14,0,0-1.79,0-1.9.74-.18.87-3.27,1.24-3.57,4.47-.33,3.23-1.05,8.88-1.05,10.77s-.88,5.09-.59,6.7c.31,1.64-.74,3.25-.74,3.25,0,0-3.58-7.93-4.32-9.78-.74-1.88-1.02-3.1-2.02-5.66-1.05-2.54-3.7-11.58-4.77-14.91-1.02-3.42-1.48-5.01-1.76-6.31-.28-1.37-.59-1.77-2.37-1.64-1.74.13-4.73.81-4.42,4.14.29,3.4,1.64,9.16,1.91,9.84.31.69.31,1.9.31,1.9,0,0-5.34-7.67-6.67-9.96-1.33-2.26-3.4-7.13-4.58-7.82-1.19-.66-4.46.37-4.88,3.15-.46,2.65.13,5.91.87,7.75.74,1.88,2.08,3.25,2.53,4.12.43,1,3.11,6.1,4.43,8.43,1.33,2.26,1.51,3.08,1.51,3.08,0,0-3.45-1.37-4.02-2.06-.56-.67-3.24-6.06-5.77-8.34-2.51-2.25-5.92-4.97-7.4-6.02-1.47-1.06-4-.43-4,2.41s.29,6.07,1.63,7.51c1.33,1.48,3.84,4.87,5.17,6.96,1.34,2.21,3.88,6.61,4.9,7.31,1.02.64,7.54,8.98,8.72,12.11,1.22,3.07,1.64,8.2,1.22,10.66-.45,2.38-4.47,7.9-9.04,7.25-4.6-.71-9.33-4.35-14.2-4.05-4.9.26-11.86,3.34-12.73,5.23-.92,1.89-1.04,5.21,0,5.64,1.02.4,3.24-.26,4.44-.82,1.17-.52,3.55-.84,4.57-.84s2.82.32,5.75,1.66c2.99,1.37,5.49,2.42,6.37,3.97.9,1.41,7.26,4.48,8.6,6.1,1.33,1.64,5.32,6.57,6.93,7.79,1.67,1.2,5.2,2.1,5.2,2.1,0,0,3.95,8.55,4.41,14.06.42,5.47-1.17,12.18-1.48,14.95-.28,2.83-1.48,8.83-1.48,11.25s-.85,10.86-1.45,14.2c-.6,3.36-6.64,27.41-7.51,32.1-.91,4.68-2.08,14.85-2.79,20.05-.74,5.27.28,11.43-.31,14.35-.58,2.93-2.95,5.46-4.56,7.36-.74.85-3.7,4.16-7.08,8.18l-1.41-.84c-.72-.48-1.64-1.12-2.6-1.91-2.32,5.82-4.51,11.46-6.57,16.91l-.31.56c-3.7,6.92-12.09,21.13-13.69,23.65-1.62,2.53-4.72,6.02-4.87,7.38-.13,1.34-2.35,3.71-2.96,4.13-.56.42-3.53,6.81-4.4,6.81s-17.65,12.05-18.82,14.7c-1.17,2.68-9.44,5.94-11.2,9.77-1.76,3.91-6.32,7.51-8.95,7.51s-5.04-1.33-6.06,0c-1.04,1.35-4.13.81-4.27-.17-.15-.9-3.53-8.12-5.57-10.12-2.09-2.06-2.84-4.67-2.51-6.99.29-2.23,5.01-7.75,5.01-10.4s.7-8.2,1.59-9.79c.9-1.59,1.05-6.3.74-8.02-.28-1.74,1.02-16.08-3.11-23.57-4.09-7.47-13.51-20.06-40.74-27.68-27.23-7.64-43.45,10.7-45.78,13.8l-.43.61,2.81-19.35-.67-6.45c-.13-6.98,1.98-13.3,4.12-19.62,4.34-34.37,7.41-68.08,6.31-88.01-.21-3.58-.14-7.34.08-11.08-.59-20.64.66-42.01-.81-63.39.88-6.33,4.62-9.99,5.14-15.57,1.77-20.71-9.92-35.4-19.17-48.85.07-.59.22-1.03.22-1.62,1.69-3.96,2.43-8.88,2.57-14.31-.3-3.82-1.09-5.74-1.54-9.84-1.03-2-2.66-5.29-1.84-8,7.5,5.5,10.79,16.45,21.67,17.1,1.02-.22.23-.81.57-1.31,3.69.05,3.46.66,7.66.2-.07-.29-.15-1.55.14-.81.38,1.1.24-.43-.14-.74-.66.23-.81-.37-1.55-.06-.72-.68-2.21-.23-2.92-.89-2.14-.2-3.9-.95-5.67-1.76-1.99-12.19-5.57-27.17-11.83-36.57.22-.31.31-.69.36-.97,4.79,2.42,8.45,7.93,11.24,13.6.95,0,1.03.87,2.13.8-.59-1.03.43-.08.95-.14-.22-2.06-1.83-3.61-2.72-5.74-3.81-3.52-7.26-7.42-10.86-11.24.15-.58.36-1.02.45-1.61,14.69-24.04,20.71-56.94,32.75-83.61,26.53-33.27,37.4-82.05,57.45-121.86,7.95-9.62,16.24-19.02,22.48-30.41,6.52-10.89,19.11-15.79,23.21-29.24-12.79,1.31-15.35,12.71-24.46,17.63-1.84-10.21,9.69-26.46,0-34.45-5.89,5.74-3.6,18.59-9.12,25.93-1.39-7.34,7.93-15.43,3.3-23.95-8.45-.58-8.21,13.3-12.92,18.82-4.85-2.8-.74-10.81.57-14.92-.66-9.54,5.98-16.67,2-25.27-15.57,8.74-6.76,41.95-25.13,47.97-10.07-4.48,3.09-22.7-10.95-24.68-1.76,11.31-3.97,19.39-3.23,29.83.88,10.5,8.15,19.09,9.04,27.83,1.1,10.66-7.43,24.18-12.28,32.4-5.64,10.07-11.24,18.43-16.67,27.33-11.81,17.62-22.4,36.58-28.28,60.22-10.42,13.09-17.26,29.77-24.61,45.92-.15-.37-.21-.59-.36-.88-1.48-3.81-2.93-7.05-4.41-10.57,3.09.44,5.67,3.81,8.83,2.35-1.34-1.74-4.05-1.74-6.03-2.64-6.76-3.74-10.28-11.69-14.76-18.38-5-5.95-10.07-11.9-15.95-16.59,1.84-1.17,4.7-.45,5.81-2.12-.29-1.55-1.91-1.24-2.65-2.22-3.01-.21-5.88-.5-8.23-1.82-1.76-1.1-2.57-2.87-3.97-4.41-2.14-2.5-5.5-4.12-6.69-7.07-3.74-2.12-7.35-4.31-12.92-4.02-2.72.66-4.64,2.05-6.62,3.45-1.55.16-4.03-.44-4.31-.53,0,.29.21.23.42.23.15.21-.07.21-.21.29-10.29-.23-17.93,1.02-23.35,7.5-.16.8-.68,1.09-.83,1.9-6.24,6.76-10.28,16.38-11.81,26.74-.67,1.54-1.19,3.24-1.77,4.99-1.76,2.42-3.45,4.86-4.92,7.5-3.15,3.31-7.71,5.45-11.4,8.21-3.45,3.1-6.09,6.84-9.48,9.84-2.5,3.69-5.21,7.29-6.9,11.78-1.55,1.76-3.22,3.45-5.43,4.55-1.02.73-1.99,1.4-3.23,1.9h-.15c-7.35-8.52-13.81-17.85-21.82-25.71-12.5-10.57-11.76-34.45-21.9-47.3-19.69-26.67-41.73-51.06-57.96-81.04,2.19-6.31.67-12.7-1.33-18.14-3-1.83-6.38-3.45-9.69-5.21-5.66-12.12-14.69-21-19.9-33.73-7.5-3.45-7.14-14.83-16.68-16.14-3.01,10.85,9.61,20.19,12.85,31.14-3.81,2.2-10.35,1.69-14.24,3.82-4.26-4.56-14.1-6.18-21.9-5.23.81,1.98.29,5.44,2.57,5.95-2.28.88-5.29-2.81-9.55-1.98.24,10.21,11.47,9.47,16.68,14.85,5.81,4.47,9.76,10.79,15.5,15.55,3.97,8.97,10.5,15.35,16.75,22.03,2.59.16,4.35,1.19,6.39,2,22.78,32.98,32.47,79.17,60.53,106.88,7.5,18.35,22.19,29.53,29.67,47.97,7.14,15.78,18.67,27.16,30.13,38.78-1.17,1.02-3.59,1.02-3.68,3.16-3.36.66-5.86,2.13-8.15,3.81,2.21,1.24,4.79-.59,7.28-1.31,2.57-.67,5.21-1.34,7.95-1.84.12.08.36.22.66.29.81,1.32,1.61,2.71,2.35,4.11-.95.29-1.98.67-2.93,1.19-3.81,3.52-5.6,11.16-3.31,18.5,1.61-1.61.21-5.95,1.17-8.08,1.91-2.72,3.31-5.95,6.02-7.88,0,2.5-3.09,4.35-2.43,8.25,2.13-1.47,3.75-3.38,5.58-5.21.52,1.09,1.19,2.2,1.76,3.22-1.32,3.6-2.42,7.73-1.61,12.94-.95,3.38-4.71,4.4-5.37,8,1.7,1.03,3.9-.88,5.15-1.84.95,2.22,1.1,5.43,2.11,7.57-1.39,4.7-5.71,7.94-5.42,13.36,1.26.6,2.05-.66,2.94-1.1,1.91,1.77.43,6.25,2.13,7.87-6.55,8.29-10.81,20.11-7.05,35.49,1.61,2.05,1.69,6.16,3.74,7.34,1.02-.29.45-2,.59-3.03,1.46.16,1.46,2.35,3.31,2.14.21-3.38-4.27-6.61-1.98-10.06,1.74,2.12,2.79,5.5,4.69,7.55,3.74,11.02-.14,21.75-7.11,26.3-1.55.29-2.08-.87-3.32-.96-.36,1.24,1.33,1.69,2.06,2.35-.08,1.11-1.69.82-1.62,2.14.59.87,1.54.44,2.64.15,7.05-4.7,11.61-11.9,13.38-21.45-.59-9.27-4.43-14.11-6.54-21.31,1.45-1.26,3.74-1.76,5.5-2.79.88.43.59,2.43.88,3.67,2.12,8.16,6.46,13.45,10.07,19.61-.96,4.7-2.28,9.18-4.55,12.79-1.04.14-1.26.88-2.21.94-.66.45-2.2,0-1.91,1.19.22.06.15.36,0,.36,1.76,1.4,4.26-.36,6.17-.73,5.43-4.71,10.28-9.92,13.59-16.53,0-2.06-.81-3.17-.89-5.14,1.26.05,2.73.58,4.34,1.09,1.4,3.52,2.72,7.2,3.01,11.9,5.53,8.76,12.87,15.59,15.43,27.26-1.02,8.74,1.39,15.64,0,21.97-1.45,7.42-8.23,10.43-10.28,17.55-17.55,11.53-32.9,26.23-41.88,47.31-12.41,29.38-8.37,69.56-10.87,110.19,2.07,1.21,4.2,2.4,6.51,3.42l.71,3.31c-5.03-3.84-10.69-6.33-17.64-5.02-13.41,2.5-30.58,8.76-41.39,17.84-2.28-7.4-7.39-12.14-11.26-19.98-4.72-9.69-12.92-10.92-24.8-19.23-11.84-8.31-41.35,2.8-53.27,6.35-14.52,4.36-29.27-16.69-50.87-18.94-.01-4.5-.77-9.02-2.32-12.47-3.43-7.62-12.02-21.43-12.02-21.43,0,0-.1-19.83-1.03-22.51-.95-2.69,10.01-43.15,11.06-42.43,1.03.72,10.61-49.13,11.41-48.44.81.66,2.37-39.86,1.86-47.95-.5-8.07,5.15-48.65,7.01-54.58,1.88-5.95,8.24-51.27,7.18-58.34-1.09-7.06-.34-30.4,3.45-40.87,3.8-10.49,5.67-29.32,9.77-35.93.56-.92,1.17-1.75,1.82-2.49l-4.29-13.4c-.68-.23-1.17-.79-.84-1.77l.13-.45-1.66-5.22c-2.78-.79-5.06-.66-3.98-1.82,1.13-1.2,2.54-3.27-1.68-5.2-4.19-1.92-7.85,0-9.23-.43-1.37-.44-12.14,6.25-14.99,5.74-2.88-.53-.92-6.84-4.75-16.35-4.51-11.16-3.63-9.26-3.75-9.87-.15-.93-.36-6.09-5.37-5.49-5,.58-2.08,6.65-1.43,10.24.66,3.57,1.58,14.36.93,22.08-.81,9.48-1.73,11.86-.66,18.98,0,0,6.04,10.64,6.86,19.41.78,8.76,2.61,15.86,1.05,25.69-1.57,9.78-4.96,38.41-6.2,44.75-1.23,6.34-8.75,42.39-11.49,53.57-2.76,11.22-5.24,22.32-7.6,33.84-2.34,11.53-4.05,29.02-3.73,36.06.33,7.04-.53,17.04-3.14,23.74-2.63,6.73-12.01,13.24-12.01,13.24,0,0-19.41-58.44-28.59-68.85-9.13-10.43-9.86-17.01-27.26-22.91-17.42-5.91-36.74-6.48-38.3-5.59-1.55.88-21.45,11.82-25.64,15.44-4.17,3.62-12.61,6.3-17.67,16.76-5.07,10.49-9.01,18.14-12.01,27.69-2.99,9.55-5.31,28.22-9.68,38.92-4.37,10.69-5.17,14.79-6.61,22.64-1.45,7.88,1.65,18.17,6.62,25.67,5.02,7.53,10.56,11.67,10.56,11.67,0,0-13.52,1.86-18.28,3.3-4.76,1.47-13.5,12.36-20.1,18.79-6.59,6.43-7.43,7.55-10.46,14.73-3.02,7.16-7.54,21.55-11.11,29.73-2.04,4.68-5,9.02-7.99,13.52-2.73-14.02-10.04-30.11-15.05-40.06-.35-4.97,1.8-5.23-.83-9.89-1.87-3.31-3-6.95-4.3-10.47-1.24-3.43-2.58-6.97-4.94-9.83.01-5.41-.78-10.76-2.11-16.01-4.06-15.67-11.62-29.93-11.68-46.43-.1-21.05,13.32-44.81,20.46-64.37,9.47-25.95,21.84-45.37,41.68-65.03,7.91-7.82,8.78-16.77,16.33-25.09,7.95-8.71,16.34-15.7,24.69-24.09,16.85-17,28.55-38.01,42.05-57.49,3.77-5.42,5.91-10.35,12.54-12.08,5.95-1.53,12.09-3.16,16.65-7.45,15.73,2.89,22.87-9.07,28.46-20.9-1.73-4.05-4.76-6.78-9.48-6.95,3.2-8.88-2.8-12.17-10.08-11.01,0-7.82-9.27-8.56-14.79-5.81,3.62-10.66,15.38-35.67,7.99-46.16-5.34-7.54-8.47,6.31-10.39,9.58-.86,10.98-5.69,20.6-9.49,30.77-6.51,3.98-13.4,17.16-20.96,17.3-9.97.19-14.05-6.47-20.14,5.7-4.54,9.06,8.01,17.27,2.07,24.05-6.97,7.99-15.5,14.44-23.73,21.11-7.03,5.7-15.01,11.52-18.77,19.83-3.65,8.11-5.82,19.7-12.61,25.86-6.17,5.62-14.42,8.92-19.63,15.56-4.01-.4-7.16.78-10.36,2.93-1.13.75-2.37,1.3-3.71,1.72-1.1-12.19.11-24.81,6.8-34.26-1.31-11.64,11.48-18.21,12.65-29.2,1.79-14.66,8.13-30.59-1.81-43.62l-1.3-1.52c.91-.37,1.94-.37,2.57-1.24-.9-3.69-5.28-3.94-7.74-6.32.39-1.17,2.46-1.17,2.07-2.78-3.62-2.8-9.29-1.02-12.64-4.57.91-2.03,3.46-3.42,3.73-5.7-3.1-2.39-12.12,1.54-10.21-6.06-2.57,0-4.12-4.29-6.84-1.89-2.58-.52-3.87-5.2-6.56-4.56-.52.76,0,2.04-.52,2.79-3.49-3.04-5.17,3.42-8.4-.89-9.96-3.66-18.59-.88-28.53,0-8.27.75-15.25,4.8-21.7,10.01-4.13,4.4-6.18,10.99-13.03,11.73-15.24,12.53-6.84,34.66-15.77,49.82-4.26,8.36-9.56,17.58-18.32,22.76,10.45-3.76,17.93-15.93,22.33-26.03.11,17.19-11.38,31.6-25.43,42.46,4.38-.49,7.86-4.93,11.48-7.95,3.62-3.54,6.86-7.6,9.94-11.26-.6,3.49-2.05,6.68-4.01,9.65l1.61-1.43s-11.59,35.29-14.01,45.92c-2.42,10.64-6.29,28.52-14.5,35.76-.21.17-.37.32-.56.5-1.83,2.86-4.05,5.53-6.38,8.16-2.26,3.28-4.38,6.31-6.6,7.51-1.02,1.21-1.99,2.45-2.88,3.73-10.6-16.21-31.07-23.56-45.28-36.45v44.19c4.15,4.83,8.38,9.6,12.83,14.14,5.92,6.06,18.71,12.91,17.65,20.98-1.19,9.07,1.16,17.78,5.77,25.64,3.46,5.89,7.89,11.14,11.69,16.82.36,9.71-.46,19.42-2,29.01-3.07,19.32-8.85,38.28-9.35,57.93-.26,10.5,1.69,18.07-2.3,27.97,1.2,9.57-2.99,18.85-5.32,27.9-4.96,19.05-13.43,35.34-14.6,55.79-1.27,21.75.16,42.92,2.62,64.01-6.65,6.72-12.33,13.13-17,18.9v173.32h2161.99v-366.19c-33.63-21.1-83.22-1.02-130.35,30.15.13-2.49.24-4.9.28-6.96.11-6.86,2.63-25.29,2.63-31.21s2.6-27.79,4.48-36.99c1.88-9.23,5.89-30.63,6.11-41.28.28-10.63,16.87-28.02,21.87-34.15,5-6.19,7.28-7.23,25.38-8.53,18.11-1.3,31.74-16.09,35.61-18.57,3.87-2.47,27.99-22.23,32.11-28.82,4.13-6.63.62-10.07-2.49-14.9-3.14-4.85-6.51-10.04-12.1-16.66-5.64-6.64-29.02-29.45-37.24-38.68-8.28-9.24-26.76-25.77-30.75-30.98-4.01-5.21-2.37-10.88-1.26-17.39,1.13-6.48-2.24-13.81-2.24-13.81-4-5.08-5.25-5.33-7.01-7.23-1.73-1.88-3.87-3.54-8.37-4.25-4.49-.7-2.86,1.08-6.37,2.26-3.51,1.17-4.26.23-5.6-1.66-1.39-1.9-.8-2.37-2.16-4.5-.35-.57-.95-.95-1.7-1.07l-38.33-120.17h.02l-19.86-64.17s-.36-.48-1.03-1.2v-.13s-.08.03-.08.03c-4.43-4.77-22.08-19.82-52.51,1.14-35.49,24.51-23.37,36.85-55.01,34.76-31.66-2.09-26.47,9.71-26.47,9.71l20.31,65.92s17.23-11.2,40.53-6.49c23.32,4.69,47.75-8.02,57.62-19.78,9.86-11.75,12.47-16.5,21.92-18.81,5.46-1.36,9.45-1.47,11.88-1.31l38.52,120.75-.29.11c-4.12,1.67-2.12,14.07-2.98,15.73-.89,1.67,2.22,1.4,3.34,3.07,1.14,1.65,3.64,5.56,6.25,9.68,2.66,4.15-1.61,5.3-1.01,7.82.63,2.47.78,4.49.42,5.91-.42,1.41-2.15,1.53-4.65.36-2.48-1.2-.49-3.55-2.62-6.17-2.11-2.62-3.74-3.54-4.76-3.4-.98.11-2.86-.6-4.23,1.77-1.37,2.35.27,8.49,2.25,13.13,1.99,4.59,8.62,9.45,13.87,12.05,5.25,2.6,19.13,22.34,23,26.61,3.87,4.26,23.1,31.43,26.22,36.75,3.13,5.31,5.88,12.89,6.74,15.61.88,2.73-3.37,3.19-3.37,3.19,0,0-18.53.32-37.53.67-7.88-5.94-21.05-16.77-35.82-34.15-12.23-14.34-11.73-52.12-19.44-61.85-7.55-9.51-8.05-19.19-24.15-30.79-16.09-11.58-28.84-17.28-39.91-15.22-11.07,2.06-25.28,9.66-27.89,14.02,0,0-10.74,16.35-17.64,23.6-6.91,7.25-44.86,33.74-48.33,36.64-.52.45-2.88,1.48-6.46,2.92-1.06-10.15-.18-22.91-.7-25.23-.74-3.31-3.01-30.85-3.01-30.85,0,0,.11-8.76-.37-8.87-.5-.14.27-33.45.27-33.45,0,0,3.38-2.96,5.5-8.75,2.12-5.81,1.38-6.15,1.38-11.25s.62-4.97-3.66-13.11c-4.23-8.17-2.62-15.45-3.11-17.63-.52-2.19-1.74-4.02-3.11-4.37-1.37-.37-2.36.72-4.51-1.06-2.11-1.77-10.11-26.5-13.48-29.81-3.36-3.3-5-2.83-7.63-1.29-2.62,1.54-.14,5.43,1.99,8.74,2.12,3.33,1.12,3.57,4.26,13.02,2.69,8.15,2.41,13.57,2.44,14.67-.67-1.52-7.31-10.76-10.7-10.67-3.59.13-3.59,6.03-3.59,6.03l7.47,16.65s-8.49-15.46-9.02-16.39c-.47-.94-3.59-.94-5.35-.25-1.73.72-2.38,2.26-1.88,6.91.49,4.68,11.49,14.14,11.49,14.14l-1.48,2.13s-8.02-10.07-10.39-11.59c-2.36-1.55-1.49-.11-3.11.25-1.62.32-3,2.71-3.87,4.25-.85,1.52,1.48,8.74,4.72,17.62,3.27,8.84,13.63,26.94,13.63,26.94,0,0-1.37,10.28-1.61,17.85-.27,7.57-1.62,45.4-1.38,62.2.11,7.54,2.09,16.6,4.43,25.91-20.64,7.45-41.51,14.78-42.44,15.23-1.16.58,20.49-6.23,42.8-13.83.95,3.81,1.96,7.64,2.94,11.4-3.38,2.13-6.76,4.23-10.02,6.21,3.21-1.79,6.64-3.64,10.15-5.6,1.73,6.93,3.28,13.68,4.02,19.67.58,5,3.04,12.26,6.41,20.3-6.53,7.15-11.63,12.97-13.19,15.29,0,0,5.75-5.71,13.84-13.81,8.85,20.54,23.31,45.31,28.39,49.38,3.07,2.44,6.84,7.93,10.41,14.25-20.42,6.98-50.76,17.09-54.73,17.09-6.09,0-26.56,9.29-26.56,9.29,0,0-52.55,13.1-60.86,11.44-8.29-1.64-14.93-9.81-22.69-19.08-7.76-9.26-3.34-49.59-3.34-52.89s3.34-2.15,7.78-9.24c4.44-7.1,6.06-12.51,6.06-21.28s-9.37-5.96-9.37-5.96c0,0-1.69-14.17-4.47-23.98-2.75-9.81-6.62-30-19.89-44.71-13.31-14.69-40.96-10.9-58.11-5.45-17.13,5.45-25.45,20.72-33.22,35.45-7.74,14.72,5.57,47.95,5.57,47.95h-6.09c-6.1,0,4.42,25.6,7.18,34.34,2.76,8.71,9.98,2.74,9.98,2.74,0,0,0,7.6,3.84,15.78,3.85,8.17,8.31,12.01,13.28,22.35,4.99,10.36,5.54,30.53,5.54,30.53h-6.65c-4.97,0-7.19-1.62-19.93-5.46-12.74-3.81-23.22-4.33-30.42-7.07-6.45-2.46-14.68-1.4-25.85-3.09-1.84-7.36-2-19.13-1.93-23.97.08-5.04-4.64-6.54-4.61-9.79.07-3.27-3.84-10.9-3.78-14.14.03-3.22-1.58-15.14-2.23-19.49-.66-4.34-3.49-12.33-3.01-19.87.52-7.57.31-19.1.07-27.75-.21-8.68-5.32-10.53-7.53-9.14-2.23,1.41-1.71,15.09-1.71,15.09,0,0-5.95-17.02-6.64-21.38-.64-4.31-6.17.28-6.26,3.52-.05,3.24,1.79,25.28,1.13,20.96-.66-4.37-3.17-8.37-4.55-13.08-1.38-4.71-3.83-12.32-4.51-14.85-.68-2.53-5.51,1.01-5.92,4.6-.44,3.58.9,12.62,2.35,14.47,1.41,1.8,3.94,26.36,3.94,26.36,0,0-4.25-9.44-6.02-11.63-1.79-2.19-5-7.65-8.22-13.82-3.19-6.16-6.84-6.23-8.7-3.03-1.9,3.22,3.11,9.06,3.43,11.95.32,2.9,7.01,19.23,9.16,23.97,2.12,4.69,2.37,11.19,2.29,15.53-.05,4.32-6.41,12.5-10.43,11.73-4.01-.78-3.94-5.46-15.96-7.46-12.07-1.97-2.69,7.89,3.81,12.68,6.51,4.79,10.4,12.07,10.4,12.07,0,0,7.64,4.44,15.61,8.53,8,4.08,7.97,6.94,11.51,14.22.5,1.09,1.14,2.84,1.77,5.14-5.43-1.7-11.07-3.78-16.77-6.34-18.22-8.16-35.94-10.34-35.94-10.34,0,0-5.55-19.08-8.85-28.88-3.31-9.83-12.74-22.91-18.27-46.35-5.55-23.45-8.3-63.75-6.64-69.76,1.65-6.01,5.53-15.25,8.3-20.18,2.75-4.91,12.74-5.98,16.61-10.36,3.88-4.35,13.26-14.17,13.82-17.44.56-3.25,9.96-10.9,9.96-10.9.01,0,0,0-3.34-2.18-3.3-2.18-7.18-.55-16,4.37-8.85,4.9-16.08,13.63-16.08,13.63,0,0-2.75-6.01-3.87-12.56-.15-.85-.18-2-.14-3.32l123.63-195.76c3.14.6,8.18,2.09,14.69,5.59,11.27,6.07,13.02,13.01,21.69,31.27,8.7,18.22,35.58,42.52,66.84,44.25,31.27,1.74,49.49,21.69,49.49,21.69l47.72-77.25s10.51-13.31-30.5-21.11c-41.02-7.82-21.47-19.54-58.57-62.5-31.8-36.8-59.28-23.46-66.48-18.87l-.08-.05-.08.15c-1.09.7-1.7,1.18-1.7,1.18l-46.55,75.16h.03l-119.42,189.06c1.23-8.97,3.69-20.56,4.41-27.09,1.12-9.8-.52-14.72-3.85-18.52-3.33-3.83-6.09,2.71-7.16,11.42-1.15,8.74-5.56,28.36-5.56,28.36h-3.34s-.55-22.89-.55-34.88-9.96-2.2-9.96-2.2l-1.67,18s-2.19-1.1-7.18-1.65c-4.99-.54-5.54,13.63-5.54,13.63l-2.76-2.71c-2.75-2.74-10.52,7.07-10.52,7.07,0,0,0,6.55-1.68,23.46-1.64,16.89-.52,32.14,5.56,41.94,6.07,9.83,3.33,52.33,4.43,118.29,1.09,65.96,13.82,67.57,28.77,81.75,14.94,14.16,73.6,40.89,74.16,42.5.56,1.64-7.21,22.35-7.21,22.35l43.28,20.22c.66,3.52,1.16,6.3,1.39,7.9,1.35,8.68,1.79,26.35,1.79,26.35,0,0-9.83,20.41-17.37,31.48-2.71,4.03-4.57,10.29-5.81,16.6-17.29,19.01-37.41,42.82-47.41,58.75-2.92,4.61-5.79,8.94-8.42,13.03-1.65-1.24-3.74-2.53-3.74-2.53,0,0,1.07-23.77,4.11-29.16,3-5.33,1.31-13.29,3.52-13.27,2.19,0,4.79-1.71,6.7-7.11,1.94-5.38,1.62-9.69,3.54-14.37,1.88-4.67,3-6.8,2.72-9.68-.32-2.89-5.86-.82-5.86-.82,0,0,1.73-17.28.81-28.11-.92-10.81-7.43-15.61-12.05-25.04-4.6-9.47-12.64-10.66-24.21-18.78s-30.75.61-41.45,6.23c-10.7,5.59-14.95,19.94-20.65,31.39-5.66,11.46-.82,29.53-1.27,35.32-.46,5.75,1.59,14.07,3.03,17.36,1.4,3.25,4.13,14.11,4.13,14.11,0,0,4.03.76,3.98,3.66-.07,2.89,3.83,11.24,3.83,11.24,0,0,.47,3.37.91,7.49-3.73-6.56-8.43-13.34-13.31-21.07-14.58-23.15-50.44-62.95-68.1-80.51-6.72-6.69-14.13-10.63-20.73-12.95.92-8.08,2.47-17.93,3.84-27.5,2.05-14.4.49-54.82,1.7-62.34,1.21-7.56,10.11-35.92,12.01-43.07,1.96-7.19,2.35-7.55,6.06-11.46,3.73-3.88,22.83-7.94,25.79-8.6,2.91-.67,9.2-5.26,14.42-9.17,5.15-3.88,8.47-4.92,12.86-6.28,4.44-1.37,7.4-2.42,7.43-5.66.08-3.25-2.48-2.92-6.52-2.98-4.05-.05-11.37,2.71-14.69,3.36-3.33.69-12.88,2.69-12.88,2.69,0,0,.59-12.95,6.91-20.08,6.33-7.12,16.13-23.54,21-30.66,4.86-7.16-2.78-9.42-4.61-9.45-1.84,0-9.71,11.75-10.49,14.62-.77,2.88-16.73,15.23-16.73,15.23,0,0,13.14-19.97,17.71-30.01,4.55-10.03,4.19-12.56,1.69-15.46-2.5-2.93-7.4,4.56-7.4,4.56.03,0-8.62,15-10.51,18.58-1.9,3.57-10.84,13.16-8.58,9.24,2.25-3.92,2.34-8.99,4.58-12.52,2.24-3.59,7.11-8.92,8.65-14.65,1.59-5.76-6.19-1.54-8.78.92-2.59,2.47-21.01,32.84-21.01,32.84l-7.71.25s5.68-11.46,8.74-19.69c3.06-8.27,3.45-10.04,2.4-12.59-1.08-2.54-8.52,4.17-9.65,6.01-1.07,1.77-10.21,21.82-11.72,25.38-1.55,3.58-9.67,8.88-13.48,17.47-3.8,8.59-7.04,29.45-7.25,40.26-.15,10.84-7.78,30.87-16.94,54.55-2.52,6.47-4.72,14.76-6.69,23.85-9.73-10.26-14.99-34.24-26.41-48.64-12.75-16.03-37.69-10.22-49.15-7.23-11.45,2.97-21.49,23.23-27.51,36.78-5.99,13.56-6.91,34.47-8.17,64.07-1.24,29.64-9.45,40.68-9.45,40.68,0,0,7.96-7.88,10.81-18.74,2.88-10.88,3.34-33.55,3.34-33.55,0,0,.5,25.37,5.75,38.56,5.27,13.18-15.78,30.03-15.78,30.03l-2.16,5.98s-11.62,9.37-17.25,13.64c-5.63,4.26-5.5,10.38-7.01,14.95-.17.47-.3,1.67-.42,3.43-1.54-1.72-3.17-3.27-4.87-4.62-12.11-9.4-23.73-18.29-32.59-20.44Zm-230.37,92.82l-.4,9.29h-1.77l2.18-9.29Zm1060.47-179.58c-6.12,6.86-12.25,30.27-18.5,46.94-6.23,16.68-10.11,24.48-22.87,39.62-12.71,15.12-14.09,27.19-12.85,40.17.07.99.07,2.19-.03,3.52-2.56-1.32-4.83-2.53-5.86-3.19-3.03-2.01-9.2-6.77-8.52-16.66.65-9.9,3.35-24.07,3.35-24.07,0,0,6.69-.32,8.35-5.27,1.67-4.94,4.34-20.09,1.98-21.75-2.32-1.67-4.32-1.32-4.32-1.32,0,0,.35-17.5-1.49-28.48,2.4-.43,4.85-.53,8.31-3.42,7.16-6.02,9.39-40.89,9.39-40.89l4.44-4.9s21.98-6.55,41.6-14.01c1.23,7.32,2.38,14.07,2.38,14.07-.5,10.04.74,12.76-5.36,19.62Z" fill="#e4e4e7" fill-rule="evenodd" stroke-width="0"/></g></svg>