<?xml version="1.0" encoding="UTF-8"?><svg id="Layer_2" xmlns="http://www.w3.org/2000/svg" viewBox="0 0 1822.92 739.15"><g id="Capa_1"><path d="m381.5,170.82c-118.46,39.22-151.4,109.04-178.23,184.71-18.5,46.8-34.56,95.96-82.54,129.08-27.53,19.03-65.61,32.77-120.73,37.74,80.54-48.19,41.05-156.16,19.85-262.61C-4.38,153.35-10.39,48.41,67.24,6.65c5.68,3.96,11.36,7.8,17.09,11.63,94.17,63.12,193.97,113.92,297.18,152.54" fill="#bf1828" stroke-width="0"/><path d="m993.05,497.04c4.06,38.34,9.96,77.25.6,116.52-9.84,41.48-36.67,83.4-100.44,125.59,47.61-80.1-35.59-157.46-101.48-241.46-68.64-82.66-119.97-171.91-72.86-245.47,27.86,3.25,55.77,5.68,83.79,7.25,87.08,5.09,174.49,2.22,261.14-8.55-85.41,89.47-81.89,166.65-70.75,246.12" fill="#bf1828" stroke-width="0"/><path d="m1822.92,393.78v.05c0,33.65-10.39,72.98-37.81,121.5,6.06-93.74-105.86-122.19-204.46-165.47-100.67-40.56-188.03-95.95-179.97-183.04,27.21-10.45,54.15-21.69,80.75-33.81,80.49-36.51,158.33-80.88,232.49-133.01-36.88,121.49,2.5,187.74,49.61,252.77,28.12,41.6,59.39,82.71,59.39,141.01" fill="#bf1828" stroke-width="0"/><path d="m718.87,252.22c-104.29,66.64-119.32,142.42-127.38,222.27-5.41,39.92-8.98,80.87-29.69,118.13-20.02,36.03-56.09,68.59-125.38,93.25,65.56-66.46,2.81-161.4-41.82-258.92-47.6-96.83-76.97-196.19-13.09-256.13,13.04,4.87,26.12,9.58,39.27,14.01,97.2,33.2,197.16,55.6,298.09,67.39" fill="#f59e11" stroke-width="0"/><path d="m1417.13,554.76c-4.16,37.75-22.6,79.3-67.45,127.54,27.53-89.2-72.32-144.36-156.49-210.3-86.64-63.88-157.62-138.47-129.39-221.07,15.7-1.95,31.33-4.17,46.96-6.65,98.44-15.59,195.65-41.38,289.92-77.46-62.63,107.75-40.67,181.79-10.87,256.27,15.09,41.76,32.72,83.63,27.31,131.66" fill="#f59e11" stroke-width="0"/><path d="m67.24,6.65C19.93,32.1,3.69,81,3.7,139.41c0,37.44,6.69,78.77,16.15,120.34,11.55,58.01,28.54,116.47,28.57,165.45.03,40.91-11.77,75.23-48.42,97.15,55.12-4.97,93.2-18.71,120.73-37.74C61.66,309.83,71.73,121.54,84.33,18.28c-5.73-3.83-11.41-7.67-17.09-11.63" fill="#dc2727" stroke-width="0"/><path d="m381.5,170.82h0c-26.2,24.59-36.71,55.8-36.71,90.75,0,50.27,21.73,108.26,49.8,165.38,30.77,67.23,70.15,133.24,70.16,189.54,0,25.36-7.99,48.74-28.34,69.38,69.29-24.66,105.37-57.22,125.38-93.25-85.68-145.5-124.79-314.75-141.02-407.78h0c-13.15-4.44-26.24-9.15-39.27-14.01" fill="#fbbf26" stroke-width="0"/><path d="m718.87,252.22c-12.7,19.84-18.24,40.8-18.23,62.47.05,58.73,40.95,122.63,91.09,183,52.38,66.78,115.69,129.35,115.54,192.44-.04,16.28-4.3,32.58-14.06,49.02,63.77-42.19,90.6-84.11,100.44-125.59-150.97-133.44-186.83-267.33-190.99-354.09h0c-28.03-1.57-55.93-4.01-83.79-7.25" fill="#dc2727" stroke-width="0"/><path d="m1110.76,244.28h0c-15.63,2.48-31.26,4.7-46.96,6.65-4.3,12.58-6.3,24.98-6.29,37.19.04,67.89,62.23,129.73,135.68,183.88,74.47,58.34,161.22,108.25,161.15,180.75,0,9.44-1.48,19.27-4.66,29.55,44.85-48.24,63.29-89.79,67.45-127.54-197.65-109.32-276.24-238.59-306.37-310.48" fill="#fbbf26" stroke-width="0"/><path d="m1481.44,133.01h0c-26.61,12.12-53.54,23.36-80.75,33.81-.34,3.74-.51,7.42-.51,11.04-.02,80.77,84.14,133.17,180.48,171.99,96.1,42.18,204.84,70.28,204.7,158.45,0,2.3-.08,4.64-.24,7.02,27.42-48.52,37.81-87.85,37.81-121.5v-.05h0c-207-108.28-299.98-198.56-341.48-260.76" fill="#dc2727" stroke-width="0"/></g></svg>