<?xml version="1.0" encoding="UTF-8"?><svg id="Layer_2" xmlns="http://www.w3.org/2000/svg" viewBox="0 0 274.43 195.13"><g id="Layer_1-2"><path d="m212.44,90.79H61.99L92.34,13.71c2.76-7,9.4-11.53,16.93-11.53h55.88c7.53,0,14.17,4.52,16.93,11.53l30.36,77.08h0Zm-129.34-14.37h108.23l-22.62-57.44c-.57-1.46-1.98-2.43-3.55-2.42h-55.88c-1.58,0-2.97.95-3.55,2.42l-22.62,57.44h-.01Z" fill="#27272a" stroke-width="0"/><rect x="13.5" y="62.98" width="247.43" height="129.34" rx="14.06" ry="14.06" fill="#3f3f46" stroke-width="0"/><rect x="112.84" width="48.74" height="18.37" rx="1.97" ry="1.97" fill="#18181b" stroke-width="0"/><path d="m13.5,178.26L0,100.1l13.5-23.06v101.22h0Zm247.43,0l13.5-78.17-13.5-23.06v101.22h0Z" fill="#27272a" stroke-width="0"/><path d="m260.93,89.59v47.43c-57.03-11.44-143.58-.21-233.54,34.37-4.68,1.8-9.31,3.64-13.89,5.52v-25.55c8.81-4.47,17.85-8.8,27.11-12.97,82.49-37.2,163.12-53.69,220.33-48.8h-.01Z" fill="#27272a" stroke-width="0"/><rect x="70.86" y="60.17" width="22.49" height="134.96" fill="#27272a" stroke-width="0"/><rect x="181.08" y="60.17" width="22.49" height="134.96" fill="#27272a" stroke-width="0"/><path d="m240.43,119.42c1.31-1.06.36-2.16.23-2.78-.1-.49-.14-1.41-.15-1.77,0-.08-.07-.15-.16-.15h-2.7c-.08,0-.15.07-.16.15-.01.36-.05,1.28-.15,1.77-.13.62-1.08,1.72.23,2.78,0,0,.03.03.1.07.8.56,1.86.56,2.66,0,.06-.05.1-.07.1-.07Z" fill="#71717a" stroke-width="0"/><path d="m240.32,118.09c0-.74-.6-1.34-1.34-1.34s-1.34.6-1.34,1.34l-.61,9.99c-.02.25.14.47.38.55l1.42.44c.1.03.22.03.32,0l1.42-.44c.24-.07.39-.3.38-.55l-.61-9.99Zm-1.44,2.9l-.79-.25c-.13-.04-.22-.17-.22-.31l.06-1.49.03-.85c0-.56.45-1.01,1.01-1.01s1.01.45,1.01,1.01l.03.85.06,1.49c0,.14-.08.27-.22.31l-.79.25c-.06.02-.13.02-.19,0Z" fill="#71717a" stroke-width="0"/><rect x="238.23" y="115.14" width="1.56" height="4.17" rx=".52" ry=".52" transform="translate(478.01 234.46) rotate(180)" fill="#71717a" stroke-width="0"/><rect x="237.12" y="116.65" width="3.77" height="1.15" rx=".32" ry=".32" transform="translate(356.24 -121.78) rotate(90)" fill="#71717a" stroke-width="0"/><rect x="239.41" y="95.1" width=".33" height="1.44" rx=".08" ry=".08" transform="translate(335.39 -143.76) rotate(90)" fill="#71717a" stroke-width="0"/><rect x="238.41" y="95.61" width=".33" height="1.44" rx=".08" ry=".08" transform="translate(334.9 -142.25) rotate(90)" fill="#71717a" stroke-width="0"/><rect x="239.41" y="94.07" width=".33" height="1.44" rx=".08" ry=".08" transform="translate(334.37 -144.78) rotate(90)" fill="#71717a" stroke-width="0"/><rect x="238.41" y="94.59" width=".33" height="1.44" rx=".08" ry=".08" transform="translate(333.88 -143.27) rotate(90)" fill="#71717a" stroke-width="0"/><rect x="239.41" y="93.05" width=".33" height="1.44" rx=".08" ry=".08" transform="translate(333.34 -145.81) rotate(90)" fill="#71717a" stroke-width="0"/><rect x="238.41" y="93.56" width=".33" height="1.44" rx=".08" ry=".08" transform="translate(332.86 -144.3) rotate(90)" fill="#71717a" stroke-width="0"/><rect x="239.41" y="92.02" width=".33" height="1.44" rx=".08" ry=".08" transform="translate(332.32 -146.83) rotate(90)" fill="#71717a" stroke-width="0"/><rect x="238.41" y="92.54" width=".33" height="1.44" rx=".08" ry=".08" transform="translate(331.83 -145.32) rotate(90)" fill="#71717a" stroke-width="0"/><rect x="239.41" y="91" width=".33" height="1.44" rx=".08" ry=".08" transform="translate(331.29 -147.86) rotate(90)" fill="#71717a" stroke-width="0"/><rect x="238.41" y="91.51" width=".33" height="1.44" rx=".08" ry=".08" transform="translate(330.81 -146.35) rotate(90)" fill="#71717a" stroke-width="0"/><rect x="239.41" y="89.98" width=".33" height="1.44" rx=".08" ry=".08" transform="translate(330.27 -148.88) rotate(90)" fill="#71717a" stroke-width="0"/><rect x="238.41" y="90.49" width=".33" height="1.44" rx=".08" ry=".08" transform="translate(329.78 -147.37) rotate(90)" fill="#71717a" stroke-width="0"/><rect x="239.41" y="88.95" width=".33" height="1.44" rx=".08" ry=".08" transform="translate(329.25 -149.9) rotate(90)" fill="#71717a" stroke-width="0"/><rect x="238.41" y="89.46" width=".33" height="1.44" rx=".08" ry=".08" transform="translate(328.76 -148.39) rotate(90)" fill="#71717a" stroke-width="0"/><rect x="239.41" y="87.93" width=".33" height="1.44" rx=".08" ry=".08" transform="translate(328.22 -150.93) rotate(90)" fill="#71717a" stroke-width="0"/><rect x="238.41" y="88.44" width=".33" height="1.44" rx=".08" ry=".08" transform="translate(327.74 -149.42) rotate(90)" fill="#71717a" stroke-width="0"/><rect x="239.41" y="86.9" width=".33" height="1.44" rx=".08" ry=".08" transform="translate(327.2 -151.95) rotate(90)" fill="#71717a" stroke-width="0"/><rect x="238.41" y="87.42" width=".33" height="1.44" rx=".08" ry=".08" transform="translate(326.71 -150.44) rotate(90)" fill="#71717a" stroke-width="0"/><rect x="239.41" y="85.88" width=".33" height="1.44" rx=".08" ry=".08" transform="translate(326.17 -152.98) rotate(90)" fill="#71717a" stroke-width="0"/><rect x="238.41" y="86.39" width=".33" height="1.44" rx=".08" ry=".08" transform="translate(325.69 -151.47) rotate(90)" fill="#71717a" stroke-width="0"/><rect x="239.41" y="84.86" width=".33" height="1.44" rx=".08" ry=".08" transform="translate(325.15 -154) rotate(90)" fill="#71717a" stroke-width="0"/><rect x="238.41" y="85.37" width=".33" height="1.44" rx=".08" ry=".08" transform="translate(324.66 -152.49) rotate(90)" fill="#71717a" stroke-width="0"/><rect x="239.41" y="83.83" width=".33" height="1.44" rx=".08" ry=".08" transform="translate(324.13 -155.03) rotate(90)" fill="#71717a" stroke-width="0"/><rect x="238.41" y="84.34" width=".33" height="1.44" rx=".08" ry=".08" transform="translate(323.64 -153.51) rotate(90)" fill="#71717a" stroke-width="0"/><rect x="239.41" y="82.81" width=".33" height="1.44" rx=".08" ry=".08" transform="translate(323.1 -156.05) rotate(90)" fill="#71717a" stroke-width="0"/><rect x="238.41" y="83.32" width=".33" height="1.44" rx=".08" ry=".08" transform="translate(322.61 -154.54) rotate(90)" fill="#71717a" stroke-width="0"/><rect x="239.41" y="81.78" width=".33" height="1.44" rx=".08" ry=".08" transform="translate(322.08 -157.07) rotate(90)" fill="#71717a" stroke-width="0"/><rect x="238.41" y="82.3" width=".33" height="1.44" rx=".08" ry=".08" transform="translate(321.59 -155.56) rotate(90)" fill="#71717a" stroke-width="0"/><rect x="239.41" y="80.76" width=".33" height="1.44" rx=".08" ry=".08" transform="translate(321.05 -158.1) rotate(90)" fill="#71717a" stroke-width="0"/><rect x="238.41" y="81.27" width=".33" height="1.44" rx=".08" ry=".08" transform="translate(320.57 -156.59) rotate(90)" fill="#71717a" stroke-width="0"/><rect x="239.41" y="79.74" width=".33" height="1.44" rx=".08" ry=".08" transform="translate(320.03 -159.12) rotate(90)" fill="#71717a" stroke-width="0"/><rect x="238.41" y="80.25" width=".33" height="1.44" rx=".08" ry=".08" transform="translate(319.54 -157.61) rotate(90)" fill="#71717a" stroke-width="0"/><rect x="239.41" y="78.71" width=".33" height="1.44" rx=".08" ry=".08" transform="translate(319.01 -160.15) rotate(90)" fill="#71717a" stroke-width="0"/><rect x="238.41" y="79.22" width=".33" height="1.44" rx=".08" ry=".08" transform="translate(318.52 -158.64) rotate(90)" fill="#71717a" stroke-width="0"/><rect x="239.41" y="77.69" width=".33" height="1.44" rx=".08" ry=".08" transform="translate(317.98 -161.17) rotate(90)" fill="#71717a" stroke-width="0"/><rect x="238.41" y="78.2" width=".33" height="1.44" rx=".08" ry=".08" transform="translate(317.49 -159.66) rotate(90)" fill="#71717a" stroke-width="0"/><rect x="239.41" y="76.66" width=".33" height="1.44" rx=".08" ry=".08" transform="translate(316.96 -162.19) rotate(90)" fill="#71717a" stroke-width="0"/><rect x="238.41" y="77.18" width=".33" height="1.44" rx=".08" ry=".08" transform="translate(316.47 -160.68) rotate(90)" fill="#71717a" stroke-width="0"/><rect x="239.41" y="75.64" width=".33" height="1.44" rx=".08" ry=".08" transform="translate(315.93 -163.22) rotate(90)" fill="#71717a" stroke-width="0"/><rect x="238.41" y="76.15" width=".33" height="1.44" rx=".08" ry=".08" transform="translate(315.45 -161.71) rotate(90)" fill="#71717a" stroke-width="0"/><rect x="239.41" y="74.61" width=".33" height="1.44" rx=".08" ry=".08" transform="translate(314.91 -164.24) rotate(90)" fill="#71717a" stroke-width="0"/><rect x="238.41" y="75.13" width=".33" height="1.44" rx=".08" ry=".08" transform="translate(314.42 -162.73) rotate(90)" fill="#71717a" stroke-width="0"/><rect x="239.41" y="73.59" width=".33" height="1.44" rx=".08" ry=".08" transform="translate(313.88 -165.27) rotate(90)" fill="#71717a" stroke-width="0"/><rect x="238.41" y="74.1" width=".33" height="1.44" rx=".08" ry=".08" transform="translate(313.4 -163.76) rotate(90)" fill="#71717a" stroke-width="0"/><rect x="239.41" y="72.57" width=".33" height="1.44" rx=".08" ry=".08" transform="translate(312.86 -166.29) rotate(90)" fill="#71717a" stroke-width="0"/><rect x="238.41" y="73.08" width=".33" height="1.44" rx=".08" ry=".08" transform="translate(312.37 -164.78) rotate(90)" fill="#71717a" stroke-width="0"/><rect x="239.41" y="71.54" width=".33" height="1.44" rx=".08" ry=".08" transform="translate(311.84 -167.31) rotate(90)" fill="#71717a" stroke-width="0"/><rect x="238.41" y="72.05" width=".33" height="1.44" rx=".08" ry=".08" transform="translate(311.35 -165.8) rotate(90)" fill="#71717a" stroke-width="0"/><rect x="239.41" y="70.52" width=".33" height="1.44" rx=".08" ry=".08" transform="translate(310.81 -168.34) rotate(90)" fill="#71717a" stroke-width="0"/><rect x="238.41" y="71.03" width=".33" height="1.44" rx=".08" ry=".08" transform="translate(310.33 -166.83) rotate(90)" fill="#71717a" stroke-width="0"/><rect x="239.41" y="69.49" width=".33" height="1.44" rx=".08" ry=".08" transform="translate(309.79 -169.36) rotate(90)" fill="#71717a" stroke-width="0"/><rect x="238.41" y="70.01" width=".33" height="1.44" rx=".08" ry=".08" transform="translate(309.3 -167.85) rotate(90)" fill="#71717a" stroke-width="0"/><rect x="239.41" y="68.47" width=".33" height="1.44" rx=".08" ry=".08" transform="translate(308.76 -170.39) rotate(90)" fill="#71717a" stroke-width="0"/><rect x="238.41" y="68.98" width=".33" height="1.44" rx=".08" ry=".08" transform="translate(308.28 -168.88) rotate(90)" fill="#71717a" stroke-width="0"/><rect x="239.41" y="67.45" width=".33" height="1.44" rx=".08" ry=".08" transform="translate(307.74 -171.41) rotate(90)" fill="#71717a" stroke-width="0"/><rect x="238.41" y="67.96" width=".33" height="1.44" rx=".08" ry=".08" transform="translate(307.25 -169.9) rotate(90)" fill="#71717a" stroke-width="0"/><rect x="239.41" y="66.42" width=".33" height="1.44" rx=".08" ry=".08" transform="translate(306.72 -172.44) rotate(90)" fill="#71717a" stroke-width="0"/><rect x="238.41" y="66.93" width=".33" height="1.44" rx=".08" ry=".08" transform="translate(306.23 -170.92) rotate(90)" fill="#71717a" stroke-width="0"/><rect x="239.41" y="65.4" width=".33" height="1.44" rx=".08" ry=".08" transform="translate(305.69 -173.46) rotate(90)" fill="#71717a" stroke-width="0"/><rect x="238.41" y="65.91" width=".33" height="1.44" rx=".08" ry=".08" transform="translate(305.2 -171.95) rotate(90)" fill="#71717a" stroke-width="0"/><rect x="239.41" y="64.37" width=".33" height="1.44" rx=".08" ry=".08" transform="translate(304.67 -174.48) rotate(90)" fill="#71717a" stroke-width="0"/><rect x="238.41" y="64.89" width=".33" height="1.44" rx=".08" ry=".08" transform="translate(304.18 -172.97) rotate(90)" fill="#71717a" stroke-width="0"/><rect x="239.41" y="96.12" width=".33" height="1.44" rx=".08" ry=".08" transform="translate(336.42 -142.74) rotate(90)" fill="#71717a" stroke-width="0"/><rect x="238.41" y="96.63" width=".33" height="1.44" rx=".08" ry=".08" transform="translate(335.93 -141.23) rotate(90)" fill="#71717a" stroke-width="0"/><rect x="239.41" y="97.15" width=".33" height="1.44" rx=".08" ry=".08" transform="translate(337.44 -141.71) rotate(90)" fill="#71717a" stroke-width="0"/><rect x="238.41" y="97.66" width=".33" height="1.44" rx=".08" ry=".08" transform="translate(336.95 -140.2) rotate(90)" fill="#71717a" stroke-width="0"/><rect x="239.41" y="98.17" width=".33" height="1.44" rx=".08" ry=".08" transform="translate(338.46 -140.69) rotate(90)" fill="#71717a" stroke-width="0"/><rect x="238.41" y="98.68" width=".33" height="1.44" rx=".08" ry=".08" transform="translate(337.98 -139.18) rotate(90)" fill="#71717a" stroke-width="0"/><rect x="239.41" y="99.19" width=".33" height="1.44" rx=".08" ry=".08" transform="translate(339.49 -139.66) rotate(90)" fill="#71717a" stroke-width="0"/><rect x="238.41" y="99.71" width=".33" height="1.44" rx=".08" ry=".08" transform="translate(339 -138.15) rotate(90)" fill="#71717a" stroke-width="0"/><rect x="239.41" y="100.22" width=".33" height="1.44" rx=".08" ry=".08" transform="translate(340.51 -138.64) rotate(90)" fill="#71717a" stroke-width="0"/><rect x="238.41" y="100.73" width=".33" height="1.44" rx=".08" ry=".08" transform="translate(340.02 -137.13) rotate(90)" fill="#71717a" stroke-width="0"/><rect x="239.41" y="101.24" width=".33" height="1.44" rx=".08" ry=".08" transform="translate(341.54 -137.62) rotate(90)" fill="#71717a" stroke-width="0"/><rect x="238.41" y="101.75" width=".33" height="1.44" rx=".08" ry=".08" transform="translate(341.05 -136.1) rotate(90)" fill="#71717a" stroke-width="0"/><rect x="239.41" y="102.27" width=".33" height="1.44" rx=".08" ry=".08" transform="translate(342.56 -136.59) rotate(90)" fill="#71717a" stroke-width="0"/><rect x="238.41" y="102.78" width=".33" height="1.44" rx=".08" ry=".08" transform="translate(342.07 -135.08) rotate(90)" fill="#71717a" stroke-width="0"/><rect x="239.41" y="103.29" width=".33" height="1.44" rx=".08" ry=".08" transform="translate(343.58 -135.57) rotate(90)" fill="#71717a" stroke-width="0"/><rect x="238.41" y="103.8" width=".33" height="1.44" rx=".08" ry=".08" transform="translate(343.1 -134.06) rotate(90)" fill="#71717a" stroke-width="0"/><rect x="239.41" y="104.31" width=".33" height="1.44" rx=".08" ry=".08" transform="translate(344.61 -134.54) rotate(90)" fill="#71717a" stroke-width="0"/><rect x="238.41" y="104.83" width=".33" height="1.44" rx=".08" ry=".08" transform="translate(344.12 -133.03) rotate(90)" fill="#71717a" stroke-width="0"/><rect x="239.41" y="105.34" width=".33" height="1.44" rx=".08" ry=".08" transform="translate(345.63 -133.52) rotate(90)" fill="#71717a" stroke-width="0"/><rect x="238.41" y="105.85" width=".33" height="1.44" rx=".08" ry=".08" transform="translate(345.15 -132.01) rotate(90)" fill="#71717a" stroke-width="0"/><rect x="239.41" y="106.36" width=".33" height="1.44" rx=".08" ry=".08" transform="translate(346.66 -132.49) rotate(90)" fill="#71717a" stroke-width="0"/><rect x="238.41" y="106.87" width=".33" height="1.44" rx=".08" ry=".08" transform="translate(346.17 -130.98) rotate(90)" fill="#71717a" stroke-width="0"/><rect x="239.41" y="107.39" width=".33" height="1.44" rx=".08" ry=".08" transform="translate(347.68 -131.47) rotate(90)" fill="#71717a" stroke-width="0"/><rect x="238.41" y="107.9" width=".33" height="1.44" rx=".08" ry=".08" transform="translate(347.19 -129.96) rotate(90)" fill="#71717a" stroke-width="0"/><rect x="239.41" y="108.41" width=".33" height="1.44" rx=".08" ry=".08" transform="translate(348.7 -130.45) rotate(90)" fill="#71717a" stroke-width="0"/><rect x="238.41" y="108.92" width=".33" height="1.44" rx=".08" ry=".08" transform="translate(348.22 -128.94) rotate(90)" fill="#71717a" stroke-width="0"/><rect x="239.41" y="109.43" width=".33" height="1.44" rx=".08" ry=".08" transform="translate(349.73 -129.42) rotate(90)" fill="#71717a" stroke-width="0"/><rect x="238.41" y="109.95" width=".33" height="1.44" rx=".08" ry=".08" transform="translate(349.24 -127.91) rotate(90)" fill="#71717a" stroke-width="0"/><rect x="239.41" y="110.46" width=".33" height="1.44" rx=".08" ry=".08" transform="translate(350.75 -128.4) rotate(90)" fill="#71717a" stroke-width="0"/><rect x="238.41" y="110.97" width=".33" height="1.44" rx=".08" ry=".08" transform="translate(350.27 -126.89) rotate(90)" fill="#71717a" stroke-width="0"/><rect x="239.41" y="111.48" width=".33" height="1.44" rx=".08" ry=".08" transform="translate(351.78 -127.37) rotate(90)" fill="#71717a" stroke-width="0"/><rect x="238.41" y="112" width=".33" height="1.44" rx=".08" ry=".08" transform="translate(351.29 -125.86) rotate(90)" fill="#71717a" stroke-width="0"/><rect x="239.41" y="112.51" width=".33" height="1.44" rx=".08" ry=".08" transform="translate(352.8 -126.35) rotate(90)" fill="#71717a" stroke-width="0"/><rect x="238.41" y="113.02" width=".33" height="1.44" rx=".08" ry=".08" transform="translate(352.31 -124.84) rotate(90)" fill="#71717a" stroke-width="0"/><rect x="239.41" y="113.53" width=".33" height="1.44" rx=".08" ry=".08" transform="translate(353.83 -125.33) rotate(90)" fill="#71717a" stroke-width="0"/><rect x="238.71" y="62.99" width=".74" height="2.44" rx=".08" ry=".08" transform="translate(303.28 -174.87) rotate(90)" fill="#71717a" stroke-width="0"/><g opacity=".7"><rect x="196.46" y="138.24" width=".9" height="13.23" rx=".32" ry=".32" transform="translate(341.77 -52.05) rotate(90)" stroke-width="0"/><rect x="187.26" y="139.62" width=".9" height="13.23" rx=".32" ry=".32" transform="translate(333.94 -41.48) rotate(90)" stroke-width="0"/><rect x="196.46" y="135.5" width=".9" height="13.23" rx=".32" ry=".32" transform="translate(339.02 -54.8) rotate(90)" stroke-width="0"/><rect x="187.26" y="136.87" width=".9" height="13.23" rx=".32" ry=".32" transform="translate(331.19 -44.22) rotate(90)" stroke-width="0"/><rect x="196.46" y="132.75" width=".9" height="13.23" rx=".32" ry=".32" transform="translate(336.28 -57.54) rotate(90)" stroke-width="0"/><rect x="187.26" y="134.12" width=".9" height="13.23" rx=".32" ry=".32" transform="translate(328.45 -46.97) rotate(90)" stroke-width="0"/><rect x="196.46" y="130.01" width=".9" height="13.23" rx=".32" ry=".32" transform="translate(333.53 -60.29) rotate(90)" stroke-width="0"/><rect x="187.26" y="131.38" width=".9" height="13.23" rx=".32" ry=".32" transform="translate(325.7 -49.71) rotate(90)" stroke-width="0"/><rect x="196.46" y="127.26" width=".9" height="13.23" rx=".32" ry=".32" transform="translate(330.78 -63.03) rotate(90)" stroke-width="0"/><rect x="187.26" y="128.63" width=".9" height="13.23" rx=".32" ry=".32" transform="translate(322.96 -52.46) rotate(90)" stroke-width="0"/><rect x="196.46" y="124.51" width=".9" height="13.23" rx=".32" ry=".32" transform="translate(328.04 -65.78) rotate(90)" stroke-width="0"/><rect x="187.26" y="125.89" width=".9" height="13.23" rx=".32" ry=".32" transform="translate(320.21 -55.21) rotate(90)" stroke-width="0"/><rect x="196.46" y="121.77" width=".9" height="13.23" rx=".32" ry=".32" transform="translate(325.29 -68.53) rotate(90)" stroke-width="0"/><rect x="187.26" y="123.14" width=".9" height="13.23" rx=".32" ry=".32" transform="translate(317.46 -57.95) rotate(90)" stroke-width="0"/><rect x="196.46" y="119.02" width=".9" height="13.23" rx=".32" ry=".32" transform="translate(322.55 -71.27) rotate(90)" stroke-width="0"/><rect x="187.26" y="120.39" width=".9" height="13.23" rx=".32" ry=".32" transform="translate(314.72 -60.7) rotate(90)" stroke-width="0"/><rect x="196.46" y="116.28" width=".9" height="13.23" rx=".32" ry=".32" transform="translate(319.8 -74.02) rotate(90)" stroke-width="0"/><rect x="187.26" y="117.65" width=".9" height="13.23" rx=".32" ry=".32" transform="translate(311.97 -63.44) rotate(90)" stroke-width="0"/><rect x="196.46" y="113.53" width=".9" height="13.23" rx=".32" ry=".32" transform="translate(317.05 -76.76) rotate(90)" stroke-width="0"/><rect x="187.26" y="114.9" width=".9" height="13.23" rx=".32" ry=".32" transform="translate(309.23 -66.19) rotate(90)" stroke-width="0"/><rect x="196.46" y="110.78" width=".9" height="13.23" rx=".32" ry=".32" transform="translate(314.31 -79.51) rotate(90)" stroke-width="0"/><rect x="187.26" y="112.16" width=".9" height="13.23" rx=".32" ry=".32" transform="translate(306.48 -68.94) rotate(90)" stroke-width="0"/><rect x="196.46" y="108.04" width=".9" height="13.23" rx=".32" ry=".32" transform="translate(311.56 -82.26) rotate(90)" stroke-width="0"/><rect x="187.26" y="109.41" width=".9" height="13.23" rx=".32" ry=".32" transform="translate(303.73 -71.68) rotate(90)" stroke-width="0"/><rect x="196.46" y="105.29" width=".9" height="13.23" rx=".32" ry=".32" transform="translate(308.82 -85) rotate(90)" stroke-width="0"/><rect x="187.26" y="106.66" width=".9" height="13.23" rx=".32" ry=".32" transform="translate(300.99 -74.43) rotate(90)" stroke-width="0"/><rect x="196.46" y="102.55" width=".9" height="13.23" rx=".32" ry=".32" transform="translate(306.07 -87.75) rotate(90)" stroke-width="0"/><rect x="187.26" y="103.92" width=".9" height="13.23" rx=".32" ry=".32" transform="translate(298.24 -77.17) rotate(90)" stroke-width="0"/><rect x="196.46" y="99.8" width=".9" height="13.23" rx=".32" ry=".32" transform="translate(303.32 -90.49) rotate(90)" stroke-width="0"/><rect x="187.26" y="101.17" width=".9" height="13.23" rx=".32" ry=".32" transform="translate(295.5 -79.92) rotate(90)" stroke-width="0"/><rect x="196.46" y="97.05" width=".9" height="13.23" rx=".32" ry=".32" transform="translate(300.58 -93.24) rotate(90)" stroke-width="0"/><rect x="187.26" y="98.43" width=".9" height="13.23" rx=".32" ry=".32" transform="translate(292.75 -82.67) rotate(90)" stroke-width="0"/><rect x="196.46" y="94.31" width=".9" height="13.23" rx=".32" ry=".32" transform="translate(297.83 -95.98) rotate(90)" stroke-width="0"/><rect x="187.26" y="95.68" width=".9" height="13.23" rx=".32" ry=".32" transform="translate(290 -85.41) rotate(90)" stroke-width="0"/><rect x="196.46" y="91.56" width=".9" height="13.23" rx=".32" ry=".32" transform="translate(295.09 -98.73) rotate(90)" stroke-width="0"/><rect x="187.26" y="92.93" width=".9" height="13.23" rx=".32" ry=".32" transform="translate(287.26 -88.16) rotate(90)" stroke-width="0"/><rect x="196.46" y="88.82" width=".9" height="13.23" rx=".32" ry=".32" transform="translate(292.34 -101.48) rotate(90)" stroke-width="0"/><rect x="187.26" y="90.19" width=".9" height="13.23" rx=".32" ry=".32" transform="translate(284.51 -90.9) rotate(90)" stroke-width="0"/><rect x="196.46" y="86.07" width=".9" height="13.23" rx=".32" ry=".32" transform="translate(289.59 -104.22) rotate(90)" stroke-width="0"/><rect x="187.26" y="87.44" width=".9" height="13.23" rx=".32" ry=".32" transform="translate(281.77 -93.65) rotate(90)" stroke-width="0"/><rect x="196.46" y="83.32" width=".9" height="13.23" rx=".32" ry=".32" transform="translate(286.85 -106.97) rotate(90)" stroke-width="0"/><rect x="187.26" y="84.7" width=".9" height="13.23" rx=".32" ry=".32" transform="translate(279.02 -96.4) rotate(90)" stroke-width="0"/><rect x="196.46" y="80.58" width=".9" height="13.23" rx=".32" ry=".32" transform="translate(284.1 -109.71) rotate(90)" stroke-width="0"/><rect x="187.26" y="81.95" width=".9" height="13.23" rx=".32" ry=".32" transform="translate(276.27 -99.14) rotate(90)" stroke-width="0"/><rect x="196.46" y="77.83" width=".9" height="13.23" rx=".32" ry=".32" transform="translate(281.36 -112.46) rotate(90)" stroke-width="0"/><rect x="187.26" y="79.2" width=".9" height="13.23" rx=".32" ry=".32" transform="translate(273.53 -101.89) rotate(90)" stroke-width="0"/><rect x="196.46" y="75.09" width=".9" height="13.23" rx=".32" ry=".32" transform="translate(278.61 -115.21) rotate(90)" stroke-width="0"/><rect x="187.26" y="76.46" width=".9" height="13.23" rx=".32" ry=".32" transform="translate(270.78 -104.63) rotate(90)" stroke-width="0"/><rect x="196.46" y="72.34" width=".9" height="13.23" rx=".32" ry=".32" transform="translate(275.86 -117.95) rotate(90)" stroke-width="0"/><rect x="187.26" y="73.71" width=".9" height="13.23" rx=".32" ry=".32" transform="translate(268.04 -107.38) rotate(90)" stroke-width="0"/><rect x="196.46" y="69.59" width=".9" height="13.23" rx=".32" ry=".32" transform="translate(273.12 -120.7) rotate(90)" stroke-width="0"/><rect x="187.26" y="70.97" width=".9" height="13.23" rx=".32" ry=".32" transform="translate(265.29 -110.13) rotate(90)" stroke-width="0"/><rect x="196.46" y="66.85" width=".9" height="13.23" rx=".32" ry=".32" transform="translate(270.37 -123.44) rotate(90)" stroke-width="0"/><rect x="187.26" y="68.22" width=".9" height="13.23" rx=".32" ry=".32" transform="translate(262.54 -112.87) rotate(90)" stroke-width="0"/><rect x="196.46" y="64.1" width=".9" height="13.23" rx=".32" ry=".32" transform="translate(267.63 -126.19) rotate(90)" stroke-width="0"/><rect x="187.26" y="65.47" width=".9" height="13.23" rx=".32" ry=".32" transform="translate(259.8 -115.62) rotate(90)" stroke-width="0"/><rect x="196.46" y="61.36" width=".9" height="13.23" rx=".32" ry=".32" transform="translate(264.88 -128.94) rotate(90)" stroke-width="0"/><rect x="187.26" y="62.73" width=".9" height="13.23" rx=".32" ry=".32" transform="translate(257.05 -118.36) rotate(90)" stroke-width="0"/><rect x="196.46" y="58.61" width=".9" height="13.23" rx=".32" ry=".32" transform="translate(262.13 -131.68) rotate(90)" stroke-width="0"/><rect x="187.26" y="59.98" width=".9" height="13.23" rx=".32" ry=".32" transform="translate(254.31 -121.11) rotate(90)" stroke-width="0"/><rect x="196.46" y="55.86" width=".9" height="13.23" rx=".32" ry=".32" transform="translate(259.39 -134.43) rotate(90)" stroke-width="0"/><rect x="187.26" y="57.24" width=".9" height="13.23" rx=".32" ry=".32" transform="translate(251.56 -123.86) rotate(90)" stroke-width="0"/><rect x="196.46" y="140.99" width=".9" height="13.23" rx=".32" ry=".32" transform="translate(344.51 -49.3) rotate(90)" stroke-width="0"/><rect x="187.26" y="142.36" width=".9" height="13.23" rx=".32" ry=".32" transform="translate(336.69 -38.73) rotate(90)" stroke-width="0"/><rect x="196.46" y="143.74" width=".9" height="13.23" rx=".32" ry=".32" transform="translate(347.26 -46.56) rotate(90)" stroke-width="0"/><rect x="187.26" y="145.11" width=".9" height="13.23" rx=".32" ry=".32" transform="translate(339.43 -35.98) rotate(90)" stroke-width="0"/><rect x="196.46" y="146.48" width=".9" height="13.23" rx=".32" ry=".32" transform="translate(350.01 -43.81) rotate(90)" stroke-width="0"/><rect x="187.26" y="147.85" width=".9" height="13.23" rx=".32" ry=".32" transform="translate(342.18 -33.24) rotate(90)" stroke-width="0"/><rect x="196.46" y="149.23" width=".9" height="13.23" rx=".32" ry=".32" transform="translate(352.75 -41.07) rotate(90)" stroke-width="0"/><rect x="187.26" y="150.6" width=".9" height="13.23" rx=".32" ry=".32" transform="translate(344.92 -30.49) rotate(90)" stroke-width="0"/><rect x="196.46" y="151.97" width=".9" height="13.23" rx=".32" ry=".32" transform="translate(355.5 -38.32) rotate(90)" stroke-width="0"/><rect x="187.26" y="153.35" width=".9" height="13.23" rx=".32" ry=".32" transform="translate(347.67 -27.75) rotate(90)" stroke-width="0"/><rect x="196.46" y="154.72" width=".9" height="13.23" rx=".32" ry=".32" transform="translate(358.24 -35.57) rotate(90)" stroke-width="0"/><rect x="187.26" y="156.09" width=".9" height="13.23" rx=".32" ry=".32" transform="translate(350.42 -25) rotate(90)" stroke-width="0"/><rect x="196.46" y="157.47" width=".9" height="13.23" rx=".32" ry=".32" transform="translate(360.99 -32.83) rotate(90)" stroke-width="0"/><rect x="187.26" y="158.84" width=".9" height="13.23" rx=".32" ry=".32" transform="translate(353.16 -22.25) rotate(90)" stroke-width="0"/><rect x="196.46" y="160.21" width=".9" height="13.23" rx=".32" ry=".32" transform="translate(363.74 -30.08) rotate(90)" stroke-width="0"/><rect x="187.26" y="161.58" width=".9" height="13.23" rx=".32" ry=".32" transform="translate(355.91 -19.51) rotate(90)" stroke-width="0"/><rect x="196.46" y="162.96" width=".9" height="13.23" rx=".32" ry=".32" transform="translate(366.48 -27.34) rotate(90)" stroke-width="0"/><rect x="187.26" y="164.33" width=".9" height="13.23" rx=".32" ry=".32" transform="translate(358.65 -16.76) rotate(90)" stroke-width="0"/><rect x="196.46" y="165.7" width=".9" height="13.23" rx=".32" ry=".32" transform="translate(369.23 -24.59) rotate(90)" stroke-width="0"/><rect x="187.26" y="167.08" width=".9" height="13.23" rx=".32" ry=".32" transform="translate(361.4 -14.02) rotate(90)" stroke-width="0"/><rect x="196.46" y="168.45" width=".9" height="13.23" rx=".32" ry=".32" transform="translate(371.97 -21.84) rotate(90)" stroke-width="0"/><rect x="187.26" y="169.82" width=".9" height="13.23" rx=".32" ry=".32" transform="translate(364.15 -11.27) rotate(90)" stroke-width="0"/><rect x="196.46" y="171.2" width=".9" height="13.23" rx=".32" ry=".32" transform="translate(374.72 -19.1) rotate(90)" stroke-width="0"/><rect x="187.26" y="172.57" width=".9" height="13.23" rx=".32" ry=".32" transform="translate(366.89 -8.52) rotate(90)" stroke-width="0"/><rect x="196.46" y="173.94" width=".9" height="13.23" rx=".32" ry=".32" transform="translate(377.47 -16.35) rotate(90)" stroke-width="0"/><rect x="187.26" y="175.31" width=".9" height="13.23" rx=".32" ry=".32" transform="translate(369.64 -5.78) rotate(90)" stroke-width="0"/><rect x="196.46" y="176.69" width=".9" height="13.23" rx=".32" ry=".32" transform="translate(380.21 -13.61) rotate(90)" stroke-width="0"/><rect x="187.26" y="178.06" width=".9" height="13.23" rx=".32" ry=".32" transform="translate(372.38 -3.03) rotate(90)" stroke-width="0"/><rect x="196.46" y="179.43" width=".9" height="13.23" rx=".32" ry=".32" transform="translate(382.96 -10.86) rotate(90)" stroke-width="0"/><rect x="187.26" y="180.81" width=".9" height="13.23" rx=".32" ry=".32" transform="translate(375.13 -.29) rotate(90)" stroke-width="0"/><rect x="196.46" y="182.18" width=".9" height="13.23" rx=".32" ry=".32" transform="translate(385.7 -8.11) rotate(90)" stroke-width="0"/><rect x="187.26" y="183.55" width=".9" height="13.23" rx=".32" ry=".32" transform="translate(377.88 2.46) rotate(90)" stroke-width="0"/><rect x="196.46" y="184.93" width=".9" height="13.23" rx=".32" ry=".32" transform="translate(388.45 -5.37) rotate(90)" stroke-width="0"/><rect x="187.26" y="186.3" width=".9" height="13.23" rx=".32" ry=".32" transform="translate(380.62 5.21) rotate(90)" stroke-width="0"/><rect x="196.46" y="187.67" width=".9" height="13.23" rx=".32" ry=".32" transform="translate(391.2 -2.62) rotate(90)" stroke-width="0"/></g><g opacity=".7"><rect x="86.35" y="138.24" width=".9" height="13.23" rx=".32" ry=".32" transform="translate(231.66 58.06) rotate(90)" stroke-width="0"/><rect x="77.15" y="139.62" width=".9" height="13.23" rx=".32" ry=".32" transform="translate(223.84 68.63) rotate(90)" stroke-width="0"/><rect x="86.35" y="135.5" width=".9" height="13.23" rx=".32" ry=".32" transform="translate(228.92 55.31) rotate(90)" stroke-width="0"/><rect x="77.15" y="136.87" width=".9" height="13.23" rx=".32" ry=".32" transform="translate(221.09 65.88) rotate(90)" stroke-width="0"/><rect x="86.35" y="132.75" width=".9" height="13.23" rx=".32" ry=".32" transform="translate(226.17 52.56) rotate(90)" stroke-width="0"/><rect x="77.15" y="134.12" width=".9" height="13.23" rx=".32" ry=".32" transform="translate(218.34 63.14) rotate(90)" stroke-width="0"/><rect x="86.35" y="130.01" width=".9" height="13.23" rx=".32" ry=".32" transform="translate(223.42 49.82) rotate(90)" stroke-width="0"/><rect x="77.15" y="131.38" width=".9" height="13.23" rx=".32" ry=".32" transform="translate(215.6 60.39) rotate(90)" stroke-width="0"/><rect x="86.35" y="127.26" width=".9" height="13.23" rx=".32" ry=".32" transform="translate(220.68 47.07) rotate(90)" stroke-width="0"/><rect x="77.15" y="128.63" width=".9" height="13.23" rx=".32" ry=".32" transform="translate(212.85 57.65) rotate(90)" stroke-width="0"/><rect x="86.35" y="124.51" width=".9" height="13.23" rx=".32" ry=".32" transform="translate(217.93 44.33) rotate(90)" stroke-width="0"/><rect x="77.15" y="125.89" width=".9" height="13.23" rx=".32" ry=".32" transform="translate(210.11 54.9) rotate(90)" stroke-width="0"/><rect x="86.35" y="121.77" width=".9" height="13.23" rx=".32" ry=".32" transform="translate(215.19 41.58) rotate(90)" stroke-width="0"/><rect x="77.15" y="123.14" width=".9" height="13.23" rx=".32" ry=".32" transform="translate(207.36 52.15) rotate(90)" stroke-width="0"/><rect x="86.35" y="119.02" width=".9" height="13.23" rx=".32" ry=".32" transform="translate(212.44 38.83) rotate(90)" stroke-width="0"/><rect x="77.15" y="120.39" width=".9" height="13.23" rx=".32" ry=".32" transform="translate(204.61 49.41) rotate(90)" stroke-width="0"/><rect x="86.35" y="116.28" width=".9" height="13.23" rx=".32" ry=".32" transform="translate(209.69 36.09) rotate(90)" stroke-width="0"/><rect x="77.15" y="117.65" width=".9" height="13.23" rx=".32" ry=".32" transform="translate(201.87 46.66) rotate(90)" stroke-width="0"/><rect x="86.35" y="113.53" width=".9" height="13.23" rx=".32" ry=".32" transform="translate(206.95 33.34) rotate(90)" stroke-width="0"/><rect x="77.15" y="114.9" width=".9" height="13.23" rx=".32" ry=".32" transform="translate(199.12 43.92) rotate(90)" stroke-width="0"/><rect x="86.35" y="110.78" width=".9" height="13.23" rx=".32" ry=".32" transform="translate(204.2 30.6) rotate(90)" stroke-width="0"/><rect x="77.15" y="112.16" width=".9" height="13.23" rx=".32" ry=".32" transform="translate(196.38 41.17) rotate(90)" stroke-width="0"/><rect x="86.35" y="108.04" width=".9" height="13.23" rx=".32" ry=".32" transform="translate(201.46 27.85) rotate(90)" stroke-width="0"/><rect x="77.15" y="109.41" width=".9" height="13.23" rx=".32" ry=".32" transform="translate(193.63 38.42) rotate(90)" stroke-width="0"/><rect x="86.35" y="105.29" width=".9" height="13.23" rx=".32" ry=".32" transform="translate(198.71 25.1) rotate(90)" stroke-width="0"/><rect x="77.15" y="106.66" width=".9" height="13.23" rx=".32" ry=".32" transform="translate(190.88 35.68) rotate(90)" stroke-width="0"/><rect x="86.35" y="102.55" width=".9" height="13.23" rx=".32" ry=".32" transform="translate(195.96 22.36) rotate(90)" stroke-width="0"/><rect x="77.15" y="103.92" width=".9" height="13.23" rx=".32" ry=".32" transform="translate(188.14 32.93) rotate(90)" stroke-width="0"/><rect x="86.35" y="99.8" width=".9" height="13.23" rx=".32" ry=".32" transform="translate(193.22 19.61) rotate(90)" stroke-width="0"/><rect x="77.15" y="101.17" width=".9" height="13.23" rx=".32" ry=".32" transform="translate(185.39 30.19) rotate(90)" stroke-width="0"/><rect x="86.35" y="97.05" width=".9" height="13.23" rx=".32" ry=".32" transform="translate(190.47 16.87) rotate(90)" stroke-width="0"/><rect x="77.15" y="98.43" width=".9" height="13.23" rx=".32" ry=".32" transform="translate(182.65 27.44) rotate(90)" stroke-width="0"/><rect x="86.35" y="94.31" width=".9" height="13.23" rx=".32" ry=".32" transform="translate(187.73 14.12) rotate(90)" stroke-width="0"/><rect x="77.15" y="95.68" width=".9" height="13.23" rx=".32" ry=".32" transform="translate(179.9 24.69) rotate(90)" stroke-width="0"/><rect x="86.35" y="91.56" width=".9" height="13.23" rx=".32" ry=".32" transform="translate(184.98 11.37) rotate(90)" stroke-width="0"/><rect x="77.15" y="92.93" width=".9" height="13.23" rx=".32" ry=".32" transform="translate(177.15 21.95) rotate(90)" stroke-width="0"/><rect x="86.35" y="88.82" width=".9" height="13.23" rx=".32" ry=".32" transform="translate(182.23 8.63) rotate(90)" stroke-width="0"/><rect x="77.15" y="90.19" width=".9" height="13.23" rx=".32" ry=".32" transform="translate(174.41 19.2) rotate(90)" stroke-width="0"/><rect x="86.35" y="86.07" width=".9" height="13.23" rx=".32" ry=".32" transform="translate(179.49 5.88) rotate(90)" stroke-width="0"/><rect x="77.15" y="87.44" width=".9" height="13.23" rx=".32" ry=".32" transform="translate(171.66 16.46) rotate(90)" stroke-width="0"/><rect x="86.35" y="83.32" width=".9" height="13.23" rx=".32" ry=".32" transform="translate(176.74 3.14) rotate(90)" stroke-width="0"/><rect x="77.15" y="84.7" width=".9" height="13.23" rx=".32" ry=".32" transform="translate(168.92 13.71) rotate(90)" stroke-width="0"/><rect x="86.35" y="80.58" width=".9" height="13.23" rx=".32" ry=".32" transform="translate(174 .39) rotate(90)" stroke-width="0"/><rect x="77.15" y="81.95" width=".9" height="13.23" rx=".32" ry=".32" transform="translate(166.17 10.96) rotate(90)" stroke-width="0"/><rect x="86.35" y="77.83" width=".9" height="13.23" rx=".32" ry=".32" transform="translate(171.25 -2.36) rotate(90)" stroke-width="0"/><rect x="77.15" y="79.2" width=".9" height="13.23" rx=".32" ry=".32" transform="translate(163.42 8.22) rotate(90)" stroke-width="0"/><rect x="86.35" y="75.09" width=".9" height="13.23" rx=".32" ry=".32" transform="translate(168.5 -5.1) rotate(90)" stroke-width="0"/><rect x="77.15" y="76.46" width=".9" height="13.23" rx=".32" ry=".32" transform="translate(160.68 5.47) rotate(90)" stroke-width="0"/><rect x="86.35" y="72.34" width=".9" height="13.23" rx=".32" ry=".32" transform="translate(165.76 -7.85) rotate(90)" stroke-width="0"/><rect x="77.15" y="73.71" width=".9" height="13.23" rx=".32" ry=".32" transform="translate(157.93 2.73) rotate(90)" stroke-width="0"/><rect x="86.35" y="69.59" width=".9" height="13.23" rx=".32" ry=".32" transform="translate(163.01 -10.59) rotate(90)" stroke-width="0"/><rect x="77.15" y="70.97" width=".9" height="13.23" rx=".32" ry=".32" transform="translate(155.19 -.02) rotate(90)" stroke-width="0"/><rect x="86.35" y="66.85" width=".9" height="13.23" rx=".32" ry=".32" transform="translate(160.27 -13.34) rotate(90)" stroke-width="0"/><rect x="77.15" y="68.22" width=".9" height="13.23" rx=".32" ry=".32" transform="translate(152.44 -2.77) rotate(90)" stroke-width="0"/><rect x="86.35" y="64.1" width=".9" height="13.23" rx=".32" ry=".32" transform="translate(157.52 -16.09) rotate(90)" stroke-width="0"/><rect x="77.15" y="65.47" width=".9" height="13.23" rx=".32" ry=".32" transform="translate(149.69 -5.51) rotate(90)" stroke-width="0"/><rect x="86.35" y="61.36" width=".9" height="13.23" rx=".32" ry=".32" transform="translate(154.77 -18.83) rotate(90)" stroke-width="0"/><rect x="77.15" y="62.73" width=".9" height="13.23" rx=".32" ry=".32" transform="translate(146.95 -8.26) rotate(90)" stroke-width="0"/><rect x="86.35" y="58.61" width=".9" height="13.23" rx=".32" ry=".32" transform="translate(152.03 -21.58) rotate(90)" stroke-width="0"/><rect x="77.15" y="59.98" width=".9" height="13.23" rx=".32" ry=".32" transform="translate(144.2 -11) rotate(90)" stroke-width="0"/><rect x="86.35" y="55.86" width=".9" height="13.23" rx=".32" ry=".32" transform="translate(149.28 -24.32) rotate(90)" stroke-width="0"/><rect x="77.15" y="57.24" width=".9" height="13.23" rx=".32" ry=".32" transform="translate(141.46 -13.75) rotate(90)" stroke-width="0"/><rect x="86.35" y="140.99" width=".9" height="13.23" rx=".32" ry=".32" transform="translate(234.41 60.8) rotate(90)" stroke-width="0"/><rect x="77.15" y="142.36" width=".9" height="13.23" rx=".32" ry=".32" transform="translate(226.58 71.38) rotate(90)" stroke-width="0"/><rect x="86.35" y="143.74" width=".9" height="13.23" rx=".32" ry=".32" transform="translate(237.15 63.55) rotate(90)" stroke-width="0"/><rect x="77.15" y="145.11" width=".9" height="13.23" rx=".32" ry=".32" transform="translate(229.33 74.12) rotate(90)" stroke-width="0"/><rect x="86.35" y="146.48" width=".9" height="13.23" rx=".32" ry=".32" transform="translate(239.9 66.29) rotate(90)" stroke-width="0"/><rect x="77.15" y="147.85" width=".9" height="13.23" rx=".32" ry=".32" transform="translate(232.07 76.87) rotate(90)" stroke-width="0"/><rect x="86.35" y="149.23" width=".9" height="13.23" rx=".32" ry=".32" transform="translate(242.65 69.04) rotate(90)" stroke-width="0"/><rect x="77.15" y="150.6" width=".9" height="13.23" rx=".32" ry=".32" transform="translate(234.82 79.61) rotate(90)" stroke-width="0"/><rect x="86.35" y="151.97" width=".9" height="13.23" rx=".32" ry=".32" transform="translate(245.39 71.79) rotate(90)" stroke-width="0"/><rect x="77.15" y="153.35" width=".9" height="13.23" rx=".32" ry=".32" transform="translate(237.57 82.36) rotate(90)" stroke-width="0"/><rect x="86.35" y="154.72" width=".9" height="13.23" rx=".32" ry=".32" transform="translate(248.14 74.53) rotate(90)" stroke-width="0"/><rect x="77.15" y="156.09" width=".9" height="13.23" rx=".32" ry=".32" transform="translate(240.31 85.11) rotate(90)" stroke-width="0"/><rect x="86.35" y="157.47" width=".9" height="13.23" rx=".32" ry=".32" transform="translate(250.88 77.28) rotate(90)" stroke-width="0"/><rect x="77.15" y="158.84" width=".9" height="13.23" rx=".32" ry=".32" transform="translate(243.06 87.85) rotate(90)" stroke-width="0"/><rect x="86.35" y="160.21" width=".9" height="13.23" rx=".32" ry=".32" transform="translate(253.63 80.02) rotate(90)" stroke-width="0"/><rect x="77.15" y="161.58" width=".9" height="13.23" rx=".32" ry=".32" transform="translate(245.8 90.6) rotate(90)" stroke-width="0"/><rect x="86.35" y="162.96" width=".9" height="13.23" rx=".32" ry=".32" transform="translate(256.38 82.77) rotate(90)" stroke-width="0"/><rect x="77.15" y="164.33" width=".9" height="13.23" rx=".32" ry=".32" transform="translate(248.55 93.34) rotate(90)" stroke-width="0"/><rect x="86.35" y="165.7" width=".9" height="13.23" rx=".32" ry=".32" transform="translate(259.12 85.52) rotate(90)" stroke-width="0"/><rect x="77.15" y="167.08" width=".9" height="13.23" rx=".32" ry=".32" transform="translate(251.3 96.09) rotate(90)" stroke-width="0"/><rect x="86.35" y="168.45" width=".9" height="13.23" rx=".32" ry=".32" transform="translate(261.87 88.26) rotate(90)" stroke-width="0"/><rect x="77.15" y="169.82" width=".9" height="13.23" rx=".32" ry=".32" transform="translate(254.04 98.84) rotate(90)" stroke-width="0"/><rect x="86.35" y="171.2" width=".9" height="13.23" rx=".32" ry=".32" transform="translate(264.61 91.01) rotate(90)" stroke-width="0"/><rect x="77.15" y="172.57" width=".9" height="13.23" rx=".32" ry=".32" transform="translate(256.79 101.58) rotate(90)" stroke-width="0"/><rect x="86.35" y="173.94" width=".9" height="13.23" rx=".32" ry=".32" transform="translate(267.36 93.75) rotate(90)" stroke-width="0"/><rect x="77.15" y="175.31" width=".9" height="13.23" rx=".32" ry=".32" transform="translate(259.53 104.33) rotate(90)" stroke-width="0"/><rect x="86.35" y="176.69" width=".9" height="13.23" rx=".32" ry=".32" transform="translate(270.11 96.5) rotate(90)" stroke-width="0"/><rect x="77.15" y="178.06" width=".9" height="13.23" rx=".32" ry=".32" transform="translate(262.28 107.07) rotate(90)" stroke-width="0"/><rect x="86.35" y="179.43" width=".9" height="13.23" rx=".32" ry=".32" transform="translate(272.85 99.25) rotate(90)" stroke-width="0"/><rect x="77.15" y="180.81" width=".9" height="13.23" rx=".32" ry=".32" transform="translate(265.03 109.82) rotate(90)" stroke-width="0"/><rect x="86.35" y="182.18" width=".9" height="13.23" rx=".32" ry=".32" transform="translate(275.6 101.99) rotate(90)" stroke-width="0"/><rect x="77.15" y="183.55" width=".9" height="13.23" rx=".32" ry=".32" transform="translate(267.77 112.57) rotate(90)" stroke-width="0"/><rect x="86.35" y="184.93" width=".9" height="13.23" rx=".32" ry=".32" transform="translate(278.34 104.74) rotate(90)" stroke-width="0"/><rect x="77.15" y="186.3" width=".9" height="13.23" rx=".32" ry=".32" transform="translate(270.52 115.31) rotate(90)" stroke-width="0"/><rect x="86.35" y="187.67" width=".9" height="13.23" rx=".32" ry=".32" transform="translate(281.09 107.48) rotate(90)" stroke-width="0"/></g><path d="m36.07,119.42c1.31-1.06.36-2.16.23-2.78-.1-.49-.14-1.41-.15-1.77,0-.08-.07-.15-.16-.15h-2.7c-.08,0-.15.07-.16.15-.01.36-.05,1.28-.15,1.77-.13.62-1.08,1.72.23,2.78,0,0,.03.03.1.07.8.56,1.86.56,2.66,0,.06-.05.1-.07.1-.07Z" fill="#71717a" stroke-width="0"/><path d="m35.97,118.09c0-.74-.6-1.34-1.34-1.34s-1.34.6-1.34,1.34l-.61,9.99c-.02.25.14.47.38.55l1.42.44c.1.03.22.03.32,0l1.42-.44c.24-.07.39-.3.38-.55l-.61-9.99Zm-1.44,2.9l-.79-.25c-.13-.04-.22-.17-.22-.31l.06-1.49.03-.85c0-.56.45-1.01,1.01-1.01s1.01.45,1.01,1.01l.03.85.06,1.49c0,.14-.08.27-.22.31l-.79.25c-.06.02-.13.02-.19,0Z" fill="#71717a" stroke-width="0"/><rect x="33.87" y="115.14" width="1.56" height="4.17" rx=".52" ry=".52" transform="translate(69.3 234.46) rotate(180)" fill="#71717a" stroke-width="0"/><rect x="32.76" y="116.65" width="3.77" height="1.15" rx=".32" ry=".32" transform="translate(151.88 82.58) rotate(90)" fill="#71717a" stroke-width="0"/><rect x="35.05" y="95.1" width=".33" height="1.44" rx=".08" ry=".08" transform="translate(131.03 60.6) rotate(90)" fill="#71717a" stroke-width="0"/><rect x="34.05" y="95.61" width=".33" height="1.44" rx=".08" ry=".08" transform="translate(130.55 62.11) rotate(90)" fill="#71717a" stroke-width="0"/><rect x="35.05" y="94.07" width=".33" height="1.44" rx=".08" ry=".08" transform="translate(130.01 59.57) rotate(90)" fill="#71717a" stroke-width="0"/><rect x="34.05" y="94.59" width=".33" height="1.44" rx=".08" ry=".08" transform="translate(129.52 61.09) rotate(90)" fill="#71717a" stroke-width="0"/><rect x="35.05" y="93.05" width=".33" height="1.44" rx=".08" ry=".08" transform="translate(128.98 58.55) rotate(90)" fill="#71717a" stroke-width="0"/><rect x="34.05" y="93.56" width=".33" height="1.44" rx=".08" ry=".08" transform="translate(128.5 60.06) rotate(90)" fill="#71717a" stroke-width="0"/><rect x="35.05" y="92.02" width=".33" height="1.44" rx=".08" ry=".08" transform="translate(127.96 57.53) rotate(90)" fill="#71717a" stroke-width="0"/><rect x="34.05" y="92.54" width=".33" height="1.44" rx=".08" ry=".08" transform="translate(127.47 59.04) rotate(90)" fill="#71717a" stroke-width="0"/><rect x="35.05" y="91" width=".33" height="1.44" rx=".08" ry=".08" transform="translate(126.94 56.5) rotate(90)" fill="#71717a" stroke-width="0"/><rect x="34.05" y="91.51" width=".33" height="1.44" rx=".08" ry=".08" transform="translate(126.45 58.01) rotate(90)" fill="#71717a" stroke-width="0"/><rect x="35.05" y="89.98" width=".33" height="1.44" rx=".08" ry=".08" transform="translate(125.91 55.48) rotate(90)" fill="#71717a" stroke-width="0"/><rect x="34.05" y="90.49" width=".33" height="1.44" rx=".08" ry=".08" transform="translate(125.43 56.99) rotate(90)" fill="#71717a" stroke-width="0"/><rect x="35.05" y="88.95" width=".33" height="1.44" rx=".08" ry=".08" transform="translate(124.89 54.45) rotate(90)" fill="#71717a" stroke-width="0"/><rect x="34.05" y="89.46" width=".33" height="1.44" rx=".08" ry=".08" transform="translate(124.4 55.96) rotate(90)" fill="#71717a" stroke-width="0"/><rect x="35.05" y="87.93" width=".33" height="1.44" rx=".08" ry=".08" transform="translate(123.86 53.43) rotate(90)" fill="#71717a" stroke-width="0"/><rect x="34.05" y="88.44" width=".33" height="1.44" rx=".08" ry=".08" transform="translate(123.38 54.94) rotate(90)" fill="#71717a" stroke-width="0"/><rect x="35.05" y="86.9" width=".33" height="1.44" rx=".08" ry=".08" transform="translate(122.84 52.41) rotate(90)" fill="#71717a" stroke-width="0"/><rect x="34.05" y="87.42" width=".33" height="1.44" rx=".08" ry=".08" transform="translate(122.35 53.92) rotate(90)" fill="#71717a" stroke-width="0"/><rect x="35.05" y="85.88" width=".33" height="1.44" rx=".08" ry=".08" transform="translate(121.82 51.38) rotate(90)" fill="#71717a" stroke-width="0"/><rect x="34.05" y="86.39" width=".33" height="1.44" rx=".08" ry=".08" transform="translate(121.33 52.89) rotate(90)" fill="#71717a" stroke-width="0"/><rect x="35.05" y="84.86" width=".33" height="1.44" rx=".08" ry=".08" transform="translate(120.79 50.36) rotate(90)" fill="#71717a" stroke-width="0"/><rect x="34.05" y="85.37" width=".33" height="1.44" rx=".08" ry=".08" transform="translate(120.3 51.87) rotate(90)" fill="#71717a" stroke-width="0"/><rect x="35.05" y="83.83" width=".33" height="1.44" rx=".08" ry=".08" transform="translate(119.77 49.33) rotate(90)" fill="#71717a" stroke-width="0"/><rect x="34.05" y="84.34" width=".33" height="1.44" rx=".08" ry=".08" transform="translate(119.28 50.84) rotate(90)" fill="#71717a" stroke-width="0"/><rect x="35.05" y="82.81" width=".33" height="1.44" rx=".08" ry=".08" transform="translate(118.74 48.31) rotate(90)" fill="#71717a" stroke-width="0"/><rect x="34.05" y="83.32" width=".33" height="1.44" rx=".08" ry=".08" transform="translate(118.26 49.82) rotate(90)" fill="#71717a" stroke-width="0"/><rect x="35.05" y="81.78" width=".33" height="1.44" rx=".08" ry=".08" transform="translate(117.72 47.28) rotate(90)" fill="#71717a" stroke-width="0"/><rect x="34.05" y="82.3" width=".33" height="1.44" rx=".08" ry=".08" transform="translate(117.23 48.8) rotate(90)" fill="#71717a" stroke-width="0"/><rect x="35.05" y="80.76" width=".33" height="1.44" rx=".08" ry=".08" transform="translate(116.69 46.26) rotate(90)" fill="#71717a" stroke-width="0"/><rect x="34.05" y="81.27" width=".33" height="1.44" rx=".08" ry=".08" transform="translate(116.21 47.77) rotate(90)" fill="#71717a" stroke-width="0"/><rect x="35.05" y="79.74" width=".33" height="1.44" rx=".08" ry=".08" transform="translate(115.67 45.24) rotate(90)" fill="#71717a" stroke-width="0"/><rect x="34.05" y="80.25" width=".33" height="1.44" rx=".08" ry=".08" transform="translate(115.18 46.75) rotate(90)" fill="#71717a" stroke-width="0"/><rect x="35.05" y="78.71" width=".33" height="1.44" rx=".08" ry=".08" transform="translate(114.65 44.21) rotate(90)" fill="#71717a" stroke-width="0"/><rect x="34.05" y="79.22" width=".33" height="1.44" rx=".08" ry=".08" transform="translate(114.16 45.72) rotate(90)" fill="#71717a" stroke-width="0"/><rect x="35.05" y="77.69" width=".33" height="1.44" rx=".08" ry=".08" transform="translate(113.62 43.19) rotate(90)" fill="#71717a" stroke-width="0"/><rect x="34.05" y="78.2" width=".33" height="1.44" rx=".08" ry=".08" transform="translate(113.14 44.7) rotate(90)" fill="#71717a" stroke-width="0"/><rect x="35.05" y="76.66" width=".33" height="1.44" rx=".08" ry=".08" transform="translate(112.6 42.16) rotate(90)" fill="#71717a" stroke-width="0"/><rect x="34.05" y="77.18" width=".33" height="1.44" rx=".08" ry=".08" transform="translate(112.11 43.68) rotate(90)" fill="#71717a" stroke-width="0"/><rect x="35.05" y="75.64" width=".33" height="1.44" rx=".08" ry=".08" transform="translate(111.57 41.14) rotate(90)" fill="#71717a" stroke-width="0"/><rect x="34.05" y="76.15" width=".33" height="1.44" rx=".08" ry=".08" transform="translate(111.09 42.65) rotate(90)" fill="#71717a" stroke-width="0"/><rect x="35.05" y="74.61" width=".33" height="1.44" rx=".08" ry=".08" transform="translate(110.55 40.12) rotate(90)" fill="#71717a" stroke-width="0"/><rect x="34.05" y="75.13" width=".33" height="1.44" rx=".08" ry=".08" transform="translate(110.06 41.63) rotate(90)" fill="#71717a" stroke-width="0"/><rect x="35.05" y="73.59" width=".33" height="1.44" rx=".08" ry=".08" transform="translate(109.53 39.09) rotate(90)" fill="#71717a" stroke-width="0"/><rect x="34.05" y="74.1" width=".33" height="1.44" rx=".08" ry=".08" transform="translate(109.04 40.6) rotate(90)" fill="#71717a" stroke-width="0"/><rect x="35.05" y="72.57" width=".33" height="1.44" rx=".08" ry=".08" transform="translate(108.5 38.07) rotate(90)" fill="#71717a" stroke-width="0"/><rect x="34.05" y="73.08" width=".33" height="1.44" rx=".08" ry=".08" transform="translate(108.02 39.58) rotate(90)" fill="#71717a" stroke-width="0"/><rect x="35.05" y="71.54" width=".33" height="1.44" rx=".08" ry=".08" transform="translate(107.48 37.04) rotate(90)" fill="#71717a" stroke-width="0"/><rect x="34.05" y="72.05" width=".33" height="1.44" rx=".08" ry=".08" transform="translate(106.99 38.55) rotate(90)" fill="#71717a" stroke-width="0"/><rect x="35.05" y="70.52" width=".33" height="1.44" rx=".08" ry=".08" transform="translate(106.45 36.02) rotate(90)" fill="#71717a" stroke-width="0"/><rect x="34.05" y="71.03" width=".33" height="1.44" rx=".08" ry=".08" transform="translate(105.97 37.53) rotate(90)" fill="#71717a" stroke-width="0"/><rect x="35.05" y="69.49" width=".33" height="1.44" rx=".08" ry=".08" transform="translate(105.43 35) rotate(90)" fill="#71717a" stroke-width="0"/><rect x="34.05" y="70.01" width=".33" height="1.44" rx=".08" ry=".08" transform="translate(104.94 36.51) rotate(90)" fill="#71717a" stroke-width="0"/><rect x="35.05" y="68.47" width=".33" height="1.44" rx=".08" ry=".08" transform="translate(104.41 33.97) rotate(90)" fill="#71717a" stroke-width="0"/><rect x="34.05" y="68.98" width=".33" height="1.44" rx=".08" ry=".08" transform="translate(103.92 35.48) rotate(90)" fill="#71717a" stroke-width="0"/><rect x="35.05" y="67.45" width=".33" height="1.44" rx=".08" ry=".08" transform="translate(103.38 32.95) rotate(90)" fill="#71717a" stroke-width="0"/><rect x="34.05" y="67.96" width=".33" height="1.44" rx=".08" ry=".08" transform="translate(102.89 34.46) rotate(90)" fill="#71717a" stroke-width="0"/><rect x="35.05" y="66.42" width=".33" height="1.44" rx=".08" ry=".08" transform="translate(102.36 31.92) rotate(90)" fill="#71717a" stroke-width="0"/><rect x="34.05" y="66.93" width=".33" height="1.44" rx=".08" ry=".08" transform="translate(101.87 33.43) rotate(90)" fill="#71717a" stroke-width="0"/><rect x="35.05" y="65.4" width=".33" height="1.44" rx=".08" ry=".08" transform="translate(101.33 30.9) rotate(90)" fill="#71717a" stroke-width="0"/><rect x="34.05" y="65.91" width=".33" height="1.44" rx=".08" ry=".08" transform="translate(100.85 32.41) rotate(90)" fill="#71717a" stroke-width="0"/><rect x="35.05" y="64.37" width=".33" height="1.44" rx=".08" ry=".08" transform="translate(100.31 29.87) rotate(90)" fill="#71717a" stroke-width="0"/><rect x="34.05" y="64.89" width=".33" height="1.44" rx=".08" ry=".08" transform="translate(99.82 31.39) rotate(90)" fill="#71717a" stroke-width="0"/><rect x="35.05" y="96.12" width=".33" height="1.44" rx=".08" ry=".08" transform="translate(132.06 61.62) rotate(90)" fill="#71717a" stroke-width="0"/><rect x="34.05" y="96.63" width=".33" height="1.44" rx=".08" ry=".08" transform="translate(131.57 63.13) rotate(90)" fill="#71717a" stroke-width="0"/><rect x="35.05" y="97.15" width=".33" height="1.44" rx=".08" ry=".08" transform="translate(133.08 62.65) rotate(90)" fill="#71717a" stroke-width="0"/><rect x="34.05" y="97.66" width=".33" height="1.44" rx=".08" ry=".08" transform="translate(132.59 64.16) rotate(90)" fill="#71717a" stroke-width="0"/><rect x="35.05" y="98.17" width=".33" height="1.44" rx=".08" ry=".08" transform="translate(134.1 63.67) rotate(90)" fill="#71717a" stroke-width="0"/><rect x="34.05" y="98.68" width=".33" height="1.44" rx=".08" ry=".08" transform="translate(133.62 65.18) rotate(90)" fill="#71717a" stroke-width="0"/><rect x="35.05" y="99.19" width=".33" height="1.44" rx=".08" ry=".08" transform="translate(135.13 64.69) rotate(90)" fill="#71717a" stroke-width="0"/><rect x="34.05" y="99.71" width=".33" height="1.44" rx=".08" ry=".08" transform="translate(134.64 66.21) rotate(90)" fill="#71717a" stroke-width="0"/><rect x="35.05" y="100.22" width=".33" height="1.44" rx=".08" ry=".08" transform="translate(136.15 65.72) rotate(90)" fill="#71717a" stroke-width="0"/><rect x="34.05" y="100.73" width=".33" height="1.44" rx=".08" ry=".08" transform="translate(135.67 67.23) rotate(90)" fill="#71717a" stroke-width="0"/><rect x="35.05" y="101.24" width=".33" height="1.44" rx=".08" ry=".08" transform="translate(137.18 66.74) rotate(90)" fill="#71717a" stroke-width="0"/><rect x="34.05" y="101.75" width=".33" height="1.44" rx=".08" ry=".08" transform="translate(136.69 68.25) rotate(90)" fill="#71717a" stroke-width="0"/><rect x="35.05" y="102.27" width=".33" height="1.44" rx=".08" ry=".08" transform="translate(138.2 67.77) rotate(90)" fill="#71717a" stroke-width="0"/><rect x="34.05" y="102.78" width=".33" height="1.44" rx=".08" ry=".08" transform="translate(137.71 69.28) rotate(90)" fill="#71717a" stroke-width="0"/><rect x="35.05" y="103.29" width=".33" height="1.44" rx=".08" ry=".08" transform="translate(139.23 68.79) rotate(90)" fill="#71717a" stroke-width="0"/><rect x="34.05" y="103.8" width=".33" height="1.44" rx=".08" ry=".08" transform="translate(138.74 70.3) rotate(90)" fill="#71717a" stroke-width="0"/><rect x="35.05" y="104.31" width=".33" height="1.44" rx=".08" ry=".08" transform="translate(140.25 69.82) rotate(90)" fill="#71717a" stroke-width="0"/><rect x="34.05" y="104.83" width=".33" height="1.44" rx=".08" ry=".08" transform="translate(139.76 71.33) rotate(90)" fill="#71717a" stroke-width="0"/><rect x="35.05" y="105.34" width=".33" height="1.44" rx=".08" ry=".08" transform="translate(141.27 70.84) rotate(90)" fill="#71717a" stroke-width="0"/><rect x="34.05" y="105.85" width=".33" height="1.44" rx=".08" ry=".08" transform="translate(140.79 72.35) rotate(90)" fill="#71717a" stroke-width="0"/><rect x="35.05" y="106.36" width=".33" height="1.44" rx=".08" ry=".08" transform="translate(142.3 71.86) rotate(90)" fill="#71717a" stroke-width="0"/><rect x="34.05" y="106.87" width=".33" height="1.44" rx=".08" ry=".08" transform="translate(141.81 73.37) rotate(90)" fill="#71717a" stroke-width="0"/><rect x="35.05" y="107.39" width=".33" height="1.44" rx=".08" ry=".08" transform="translate(143.32 72.89) rotate(90)" fill="#71717a" stroke-width="0"/><rect x="34.05" y="107.9" width=".33" height="1.44" rx=".08" ry=".08" transform="translate(142.83 74.4) rotate(90)" fill="#71717a" stroke-width="0"/><rect x="35.05" y="108.41" width=".33" height="1.44" rx=".08" ry=".08" transform="translate(144.35 73.91) rotate(90)" fill="#71717a" stroke-width="0"/><rect x="34.05" y="108.92" width=".33" height="1.44" rx=".08" ry=".08" transform="translate(143.86 75.42) rotate(90)" fill="#71717a" stroke-width="0"/><rect x="35.05" y="109.43" width=".33" height="1.44" rx=".08" ry=".08" transform="translate(145.37 74.94) rotate(90)" fill="#71717a" stroke-width="0"/><rect x="34.05" y="109.95" width=".33" height="1.44" rx=".08" ry=".08" transform="translate(144.88 76.45) rotate(90)" fill="#71717a" stroke-width="0"/><rect x="35.05" y="110.46" width=".33" height="1.44" rx=".08" ry=".08" transform="translate(146.39 75.96) rotate(90)" fill="#71717a" stroke-width="0"/><rect x="34.05" y="110.97" width=".33" height="1.44" rx=".08" ry=".08" transform="translate(145.91 77.47) rotate(90)" fill="#71717a" stroke-width="0"/><rect x="35.05" y="111.48" width=".33" height="1.44" rx=".08" ry=".08" transform="translate(147.42 76.98) rotate(90)" fill="#71717a" stroke-width="0"/><rect x="34.05" y="112" width=".33" height="1.44" rx=".08" ry=".08" transform="translate(146.93 78.5) rotate(90)" fill="#71717a" stroke-width="0"/><rect x="35.05" y="112.51" width=".33" height="1.44" rx=".08" ry=".08" transform="translate(148.44 78.01) rotate(90)" fill="#71717a" stroke-width="0"/><rect x="34.05" y="113.02" width=".33" height="1.44" rx=".08" ry=".08" transform="translate(147.96 79.52) rotate(90)" fill="#71717a" stroke-width="0"/><rect x="35.05" y="113.53" width=".33" height="1.44" rx=".08" ry=".08" transform="translate(149.47 79.03) rotate(90)" fill="#71717a" stroke-width="0"/><rect x="34.35" y="62.99" width=".74" height="2.44" rx=".08" ry=".08" transform="translate(98.93 29.49) rotate(90)" fill="#71717a" stroke-width="0"/></g></svg>