<?xml version="1.0" encoding="UTF-8" standalone="no"?>
<!-- Created with Inkscape (http://www.inkscape.org/) -->

<svg
   xmlns:dc="http://purl.org/dc/elements/1.1/"
   xmlns:cc="http://creativecommons.org/ns#"
   xmlns:rdf="http://www.w3.org/1999/02/22-rdf-syntax-ns#"
   xmlns:svg="http://www.w3.org/2000/svg"
   xmlns="http://www.w3.org/2000/svg"
   xmlns:sodipodi="http://sodipodi.sourceforge.net/DTD/sodipodi-0.dtd"
   xmlns:inkscape="http://www.inkscape.org/namespaces/inkscape"
   width="301"
   height="302"
   viewBox="0 0 301 302"
   id="svg63464"
   version="1.1"
   inkscape:version="0.91 r13725"
   sodipodi:docname="niagara icedogs.svg">
  <defs
     id="defs63466">
    <clipPath
       id="clipPath62429"
       clipPathUnits="userSpaceOnUse">
      <path
         inkscape:connector-curvature="0"
         id="path62431"
         d="m 309.72,471.914 61.034,0 0,71.986 -61.034,0 0,-71.986 z" />
    </clipPath>
    <clipPath
       id="clipPath63540"
       clipPathUnits="userSpaceOnUse">
      <path
         inkscape:connector-curvature="0"
         id="path63542"
         d="m 302.25,471.9 72.024,0 0,72 -72.024,0 0,-72 z" />
    </clipPath>
  </defs>
  <sodipodi:namedview
     id="base"
     pagecolor="#ffffff"
     bordercolor="#666666"
     borderopacity="1.0"
     inkscape:pageopacity="0.0"
     inkscape:pageshadow="2"
     inkscape:zoom="1.81"
     inkscape:cx="150.5"
     inkscape:cy="150.99997"
     inkscape:document-units="px"
     inkscape:current-layer="layer1"
     showgrid="false"
     units="px"
     inkscape:window-width="1280"
     inkscape:window-height="744"
     inkscape:window-x="-4"
     inkscape:window-y="-4"
     inkscape:window-maximized="1" />
  <metadata
     id="metadata63469">
    <rdf:RDF>
      <cc:Work
         rdf:about="">
        <dc:format>image/svg+xml</dc:format>
        <dc:type
           rdf:resource="http://purl.org/dc/dcmitype/StillImage" />
        <dc:title></dc:title>
      </cc:Work>
    </rdf:RDF>
  </metadata>
  <g
     inkscape:label="Layer 1"
     inkscape:groupmode="layer"
     id="layer1"
     transform="translate(0,-750.36216)">
    <g
       id="g63536"
       transform="matrix(4.2905103,0,0,-4.2905103,-1300.8259,3080.4978)">
      <g
         id="g63538"
         clip-path="url(#clipPath63540)">
        <g
           id="g63544"
           transform="translate(333.6085,501.3022)">
          <path
             d="m 0,0 c -0.304,-0.084 -1.463,-0.487 -2.216,-1.064 1.62,0.018 4.474,0.235 5.941,-1.026 1.713,-1.473 0.662,-4.044 -0.186,-5.704 0.53,-0.365 1.327,0.128 1.586,0.6 0.48,0.875 0.61,3.026 0.42,4.054 C 5.364,-2.155 3.16,-0.564 1.994,-0.128 1.767,-0.043 1.716,0.005 1.756,0.03 1.502,0.086 1.153,0.155 0.831,0.189 0.61,0.098 0.168,0.046 0,0"
             style="fill:#4c4e52;fill-opacity:1;fill-rule:nonzero;stroke:none"
             id="path63546"
             inkscape:connector-curvature="0" />
        </g>
        <g
           id="g63548"
           transform="translate(325.3389,497.3096)">
          <path
             d="m 0,0 c -0.023,-0.008 -0.211,-0.07 -0.281,-0.094 -10e-4,0 -10e-4,0 -0.002,0 -0.261,-0.088 -1.425,-0.505 -1.478,-0.525 -0.032,-0.012 -0.553,-0.209 -0.586,-0.221 -0.046,-0.018 -1.514,-0.609 -1.572,-0.633 -1.362,-0.573 -2.71,-1.179 -4.036,-1.831 -0.211,-0.036 -0.32,-0.011 -0.086,0.181 1.03,0.846 3.061,2.389 6.103,3.696 -0.653,0.171 -1.31,0.324 -1.959,0.508 C -4.567,1.27 -5.23,0.964 -5.871,0.754 -7.134,0.343 -8.398,-0.098 -9.61,-0.642 c -1.188,-0.535 -2.342,-1.154 -3.408,-1.905 -0.435,-0.306 -0.647,-1.233 -0.801,-1.73 -0.159,-0.515 -0.272,-1.038 -0.298,-1.577 -0.056,-1.148 0.253,-2.295 1.216,-2.995 0.422,-0.306 0.91,-0.547 1.426,-0.613 2.822,-0.36 6.545,1.116 8.923,2.026 -0.928,0.859 -0.931,2.332 -0.521,3.436 0.412,1.106 1.161,2.067 2,2.883 0.24,0.234 0.49,0.464 0.744,0.684 L 0.039,0.013 C 0.026,0.008 0.013,0.004 0,0"
             style="fill:#4c4e52;fill-opacity:1;fill-rule:nonzero;stroke:none"
             id="path63550"
             inkscape:connector-curvature="0" />
        </g>
        <g
           id="g63552"
           transform="translate(344.6903,497.6214)">
          <path
             d="M 0,0 C 0.208,0.177 0.447,0.318 0.7,0.421 1.244,0.642 1.89,0.699 2.435,0.448 2.616,0.365 2.668,0.267 2.862,0.337 3.122,0.431 3.397,0.485 3.673,0.497 4.269,0.521 4.834,0.339 5.307,-0.022 5.73,-0.346 5.937,-0.923 5.911,-1.444 5.881,-2.055 5.475,-2.412 5.338,-2.952 c 1.261,-0.306 4.258,-1.047 4.413,-1.086 0.14,-0.035 0.456,0.14 0.579,0.211 0.494,0.283 0.975,0.628 0.853,1.243 -0.125,0.628 -0.724,0.821 -1.279,0.635 C 9.239,-2.172 8.587,-2.336 7.886,-2.409 7.549,-2.444 7.21,-2.462 6.871,-2.463 6.751,-2.464 6.067,-2.508 6.367,-2.246 c 0.367,0.085 1.367,0.468 1.516,0.521 0.222,0.078 0.137,0.146 0.09,0.352 C 7.838,-0.784 7.596,-0.215 7.234,0.271 5.792,2.209 3.008,2.494 1.012,1.242 0.853,1.143 0.686,1.02 0.648,1.054 0.412,0.791 0.103,0.395 -0.022,0.01 -0.015,0.007 -0.007,0.003 0,0"
             style="fill:#4c4e52;fill-opacity:1;fill-rule:nonzero;stroke:none"
             id="path63554"
             inkscape:connector-curvature="0" />
        </g>
        <g
           id="g63556"
           transform="translate(350.3462,492.2788)">
          <path
             d="m 0,0 c -0.205,0.097 -0.41,0.287 -0.212,0.285 -0.282,0.065 -0.473,0.118 -0.595,0.144 0.004,-0.06 0.008,-0.118 0.008,-0.175 0.003,-0.264 0.09,-0.626 0.023,-0.888 -0.003,-0.019 -0.008,-0.038 -0.014,-0.054 -0.057,-0.159 -0.21,0.032 -0.267,0.096 -0.329,0.368 -0.584,0.861 -0.705,1.276 -0.055,0.185 -0.079,0.355 -0.079,0.516 -0.003,0.458 0.187,0.841 0.426,1.285 0.209,0.389 0.614,0.891 0.655,1.346 0.045,0.503 -0.378,0.86 -0.847,0.901 -0.7,0.06 -1.058,-0.424 -1.332,-0.42 C -3.284,4.318 -3.448,4.858 -4.523,4.748 -4.808,4.719 -5.098,4.567 -5.322,4.39 -5.324,4.388 -5.326,4.387 -5.328,4.385 -5.659,4.128 -5.771,4.286 -6.151,4.35 -6.872,4.473 -7.291,4.048 -7.73,3.594 -7.931,3.386 -8.104,3.53 -8.377,3.538 -8.652,3.545 -8.929,3.499 -9.184,3.395 -10.514,2.856 -10.292,1.41 -9.819,0.346 c 0.376,-0.845 0.859,-2.051 1.9,-2.193 -0.568,0.935 -1.059,1.977 -1.012,3.097 -0.004,0.457 0.183,0.871 0.508,1.191 0.091,0.09 0.361,0.363 0.486,0.273 C -7.841,2.646 -8.094,2.229 -8.119,2.128 -8.44,1.126 -8.1,0.198 -7.605,-0.7 c 0.411,-0.748 1.076,-1.866 2.091,-1.666 -0.822,0.857 -1.457,2.188 -1.384,3.394 0.034,0.568 0.21,1.133 0.531,1.605 0.147,0.217 0.747,0.984 0.978,0.694 -0.307,-0.592 -0.589,-1.166 -0.706,-1.833 -0.11,-0.623 0.076,-1.197 0.326,-1.763 0.471,-1.063 1.164,-2.312 2.498,-2.092 -0.565,0.455 -0.964,1.258 -1.198,1.901 -0.249,0.684 -0.338,1.444 -0.176,2.159 0.103,0.452 0.322,0.911 0.636,1.276 0.166,0.193 0.359,0.36 0.576,0.485 0.573,0.331 0.04,-0.305 -0.07,-0.501 C -3.562,2.854 -3.613,2.746 -3.659,2.638 -3.747,2.427 -3.817,2.21 -3.89,1.989 c -0.253,-0.77 0.033,-1.595 0.369,-2.301 0.304,-0.638 0.779,-1.456 1.388,-1.845 1.371,-0.876 2.746,0.47 3.261,1.659 C 0.749,-0.37 0.362,-0.172 0,0"
             style="fill:#4c4e52;fill-opacity:1;fill-rule:nonzero;stroke:none"
             id="path63558"
             inkscape:connector-curvature="0" />
        </g>
        <g
           id="g63560"
           transform="translate(324.8931,498.6239)">
          <path
             d="M 0,0 C 0.637,0.162 2.089,0.714 3.687,1.114 4.013,1.196 4.138,1.304 4.393,1.516 5.28,2.254 6.342,2.743 7.434,3.095 6.43,3.616 5.329,4.02 4.18,3.879 2.4,3.659 1.033,2.563 0.344,1.292 0.28,1.175 0.183,0.726 0.017,0.756 0.016,0.757 0.015,0.758 0.014,0.758 0,0.52 -0.011,0.234 0,0"
             style="fill:#4c4e52;fill-opacity:1;fill-rule:nonzero;stroke:none"
             id="path63562"
             inkscape:connector-curvature="0" />
        </g>
        <g
           id="g63564"
           transform="translate(323.2274,479.8333)">
          <path
             d="M 0,0 C 0.08,-0.07 0.339,-0.35 0.407,-0.153 0.867,0.39 2.262,1.391 3.09,1.872 5.319,3.169 8.74,3.919 10.351,3.705 10.569,3.676 10.548,3.719 10.576,3.923 10.781,5.411 8.778,5.347 7.769,5.241 7.012,5.162 6.271,4.969 5.556,4.71 5.229,4.592 4.031,3.989 3.76,3.951 3.369,3.897 3.968,4.371 4.055,4.448 4.221,4.595 4.516,4.79 4.851,4.987 4.26,4.994 3.195,4.951 2.143,4.616 1.164,4.304 0.389,3.755 -0.132,3.299 -0.58,2.222 -1.022,0.892 0,0"
             style="fill:#4c4e52;fill-opacity:1;fill-rule:nonzero;stroke:none"
             id="path63566"
             inkscape:connector-curvature="0" />
        </g>
        <g
           id="g63568"
           transform="translate(314.0623,476.331)">
          <path
             d="m 0,0 c 0.499,0.155 0.992,0.293 1.426,0.597 0.382,0.27 0.452,0.779 0.215,1.2 C 1.413,2.2 0.326,3.067 -2.425,2.767 -3.298,2.672 -3.941,2.499 -3.958,2.604 -3.975,2.713 -3.655,3.011 -3.209,3.374 -3.651,3.224 -4.391,3.141 -5.474,3.547 -6.237,3.833 -6.77,4.33 -7.106,4.845 -7.433,4.358 -7.735,3.893 -7.877,3.634 -8.197,3.049 -9.021,1.618 -8.325,1.04 c 0.7,-0.582 1.688,-0.937 2.577,-1.051 2.442,-0.312 4.003,-0.055 4.407,-0.115 0.066,-0.009 0.111,-0.036 0.142,-0.073 l 1.221,0.162 C -0.007,-0.019 -0.016,-0.005 0,0"
             style="fill:#4c4e52;fill-opacity:1;fill-rule:nonzero;stroke:none"
             id="path63570"
             inkscape:connector-curvature="0" />
        </g>
        <g
           id="g63572"
           transform="translate(327.4755,486.5505)">
          <path
             d="M 0,0 C -0.687,0.276 -1.29,0.945 -1.573,1.297 -1.866,0.894 -2.159,0.491 -2.44,0.08 -3.178,-0.998 -3.841,-2.138 -4.352,-3.352 -4.361,-3.374 -4.37,-3.397 -4.38,-3.419 c 0.521,0.457 1.296,1.006 2.275,1.317 1.052,0.336 2.117,0.379 2.708,0.372 0.57,0.336 1.257,0.68 1.623,0.82 0.199,0.207 0.398,0.414 0.598,0.621 C 2.326,-0.387 1.241,-0.5 0,0"
             style="fill:#bf0c26;fill-opacity:1;fill-rule:nonzero;stroke:none"
             id="path63574"
             inkscape:connector-curvature="0" />
        </g>
        <g
           id="g63576"
           transform="translate(316.975,500.6026)">
          <path
             d="M 0,0 C -0.24,0.227 -0.23,0.208 -0.481,-0.052 -1.626,-1.235 -2.683,-2.503 -3.657,-3.829 -3.662,-3.855 -3.667,-3.881 -3.672,-3.907 -2.267,-3.202 0.621,-2.04 2.76,-1.59 1.975,-1.249 0.268,-0.254 0,0"
             style="fill:#bf0c26;fill-opacity:1;fill-rule:nonzero;stroke:none"
             id="path63578"
             inkscape:connector-curvature="0" />
        </g>
        <g
           id="g63580"
           transform="translate(324.8946,500.2869)">
          <path
             d="M 0,0 C 0.173,0.898 0.776,1.683 1.501,2.22 0.683,2.847 -0.1,3.522 -0.819,4.263 -0.878,4.324 -0.939,4.389 -1.001,4.456 -1.685,4.266 -2.984,3.822 -3.774,3.019 -4.677,2.103 -5.199,0.941 -5.438,0.304 c 0.562,-0.356 1.372,-0.79 2.248,-1.161 1.01,-0.429 2.072,-0.681 2.612,-0.794 0.12,-0.025 0.214,-0.044 0.276,-0.055 0.053,-0.011 0.155,0.006 0.3,0.043 -0.01,0.234 0.001,0.519 0.015,0.758 -0.124,0.087 -0.065,0.49 -0.055,0.61 0.008,0.1 0.023,0.198 0.042,0.295"
             style="fill:#bf0c26;fill-opacity:1;fill-rule:nonzero;stroke:none"
             id="path63582"
             inkscape:connector-curvature="0" />
        </g>
        <g
           id="g63584"
           transform="translate(336.9615,497.5688)">
          <path
             d="M 0,0 C -0.025,0.296 -0.119,0.628 -0.342,0.834 -1.124,1.556 -5.314,1.22 -7.415,0.848 -7.576,0.819 -7.738,0.788 -7.901,0.755 -7.915,0.752 -8.256,0.681 -8.413,0.645 -8.434,0.641 -9.318,0.426 -9.472,0.385 -9.495,0.379 -10.047,0.226 -10.066,0.221 c -0.16,-0.046 -0.502,-0.147 -0.515,-0.151 -0.158,-0.048 -0.489,-0.151 -0.498,-0.153 -0.151,-0.048 -0.302,-0.097 -0.452,-0.146 -0.017,-0.006 -0.035,-0.012 -0.053,-0.017 l -0.368,-0.447 c 0.352,0.305 -0.038,-0.303 -0.093,-0.386 -0.366,-0.546 -0.705,-1.11 -0.992,-1.701 -0.557,-1.142 -0.968,-2.57 -0.603,-3.83 0.033,-0.113 0.238,-0.764 0.362,-0.712 0.135,0.055 5.752,2.62 6.047,2.764 0.011,0.005 0.576,0.305 0.543,0.132 -0.289,-0.254 -0.969,-1.11 -1.502,-1.746 0.505,-0.252 1.475,-0.666 2.354,-0.647 1.341,0.028 2.765,0.491 3.478,0.758 0.484,0.756 1.142,1.872 1.421,2.439 C -0.379,-2.493 0.022,-1.272 0,0"
             style="fill:#bf0c26;fill-opacity:1;fill-rule:nonzero;stroke:none"
             id="path63586"
             inkscape:connector-curvature="0" />
        </g>
        <g
           id="g63588"
           transform="translate(310.9347,485.9458)">
          <path
             d="m 0,0 c -0.149,-0.11 -0.368,-0.269 -0.584,-0.454 0.419,-0.184 1.664,-0.677 2.948,-0.679 1.423,-10e-4 2.669,0.36 3.755,0.969 0.424,0.492 0.72,0.972 0.753,0.988 C 5.187,0.486 3.187,0.097 1.567,0.911 1.542,0.923 1.518,0.937 1.493,0.95 L 0.886,0.688 C 0.89,0.682 0.892,0.676 0.892,0.668 0.887,0.54 0.492,0.365 0,0"
             style="fill:#bf0c26;fill-opacity:1;fill-rule:nonzero;stroke:none"
             id="path63590"
             inkscape:connector-curvature="0" />
        </g>
        <g
           id="g63592"
           transform="translate(342.1953,503.9263)">
          <path
             d="M 0,0 C -2.712,0.446 -4.123,1.853 -4.881,2.421 -6.268,1.895 -6.978,1.983 -8.367,1.839 c 0,0 -2.304,-2.059 -2.443,-2.152 -0.132,-0.087 -2.318,2.993 -2.318,2.993 -1.148,0.752 -3.02,0.751 -5.463,4.557 -0.564,0.878 -1.397,2.588 -1.107,2.772 0,-0.001 0.028,-0.045 0.076,-0.12 -1.047,1.761 -1.184,3.463 -1.207,4.436 -0.003,-0.029 -0.005,-0.053 -0.009,-0.071 -0.308,-0.041 -0.501,0.932 -0.557,1.158 -0.052,0.212 0.022,0.329 -0.228,0.322 -0.66,-0.02 -2.091,-0.188 -3.706,-1.003 -1.623,-0.818 -3.189,-2.018 -4.009,-3.681 -0.79,-1.602 -0.744,-3.676 -0.317,-5.373 0.398,-1.58 1.246,-3.126 2.212,-4.476 0.259,0.711 0.854,1.932 2.101,2.872 1.843,1.389 3.424,1.31 4.215,1.193 -0.616,1.966 -0.64,3.238 -0.516,4.138 0.02,0.143 0.004,0.281 0.123,0.355 0.093,0.058 0.144,0.058 0.154,-0.067 0.112,-1.503 0.256,-2.768 1.663,-5.28 0.608,-1.087 1.309,-2.177 2.164,-3.088 0.438,-0.467 1.836,-1.731 2.522,-2.177 0.126,-0.081 0.275,0.044 0.37,0.084 1.222,0.525 2.389,0.413 3.65,0.076 1.496,-0.399 3.359,-1.671 3.328,-1.695 -0.001,-10e-4 -0.003,-0.002 -0.004,-0.003 -0.022,-0.016 -0.05,-0.03 -0.083,-0.044 0.322,-0.034 0.671,-0.103 0.925,-0.159 0.007,0.004 0.017,0.008 0.029,0.011 0.11,0.028 0.411,0.006 0.571,-0.006 0.507,-0.038 1.203,-0.268 1.737,-0.444 0.142,-0.047 0.356,0.097 0.542,0.237 0.686,0.518 1.884,1.225 2.277,1.442 0.513,0.282 1.75,0.965 1.941,0.878 0.002,-0.008 0.002,-0.015 0.003,-0.022 0.228,0.146 0.455,0.29 0.634,0.403 C 0.601,-0.08 0.3,-0.049 0,0"
             style="fill:#bf0c26;fill-opacity:1;fill-rule:nonzero;stroke:none"
             id="path63594"
             inkscape:connector-curvature="0" />
        </g>
        <g
           id="g63596"
           transform="translate(347.2226,503.8844)">
          <path
             d="M 0,0 C 0.298,0.057 0.72,-1.328 0.775,-1.546 0.812,-1.695 0.84,-1.824 0.861,-1.95 0.997,-1.869 1.177,-1.775 1.419,-1.666 2.28,-1.278 3.71,-1.1 5.297,-1.573 6.051,-1.798 6.836,-2.374 7.275,-2.951 7.901,-1.446 8.248,0.174 8.193,1.81 8.103,4.467 7.067,7.265 4.665,8.67 4.734,7.533 4.762,6.394 4.72,5.256 4.687,4.385 4.658,3.375 4.306,2.564 3.922,1.677 2.857,1.335 2.026,1 1.317,0.715 0.523,0.537 -0.248,0.38 -0.17,0.264 -0.081,0.127 0.007,-0.013 0.004,-0.005 0.002,0.001 0,0"
             style="fill:#bf0c26;fill-opacity:1;fill-rule:nonzero;stroke:none"
             id="path63598"
             inkscape:connector-curvature="0" />
        </g>
        <g
           id="g63600"
           transform="translate(308.5887,479.8779)">
          <path
             d="M 0,0 C 1.083,-0.406 1.823,-0.323 2.264,-0.173 2.238,-0.194 2.213,-0.215 2.188,-0.236 2.489,0.013 2.858,0.297 3.223,0.574 2.687,0.515 1.639,0.46 0.768,0.777 -0.09,1.089 -0.77,1.689 -1.121,2.045 -1.365,1.693 -1.634,1.299 -1.868,0.943 -1.793,1.058 -1.713,1.177 -1.632,1.298 -1.296,0.783 -0.763,0.286 0,0"
             style="fill:#bf0c26;fill-opacity:1;fill-rule:nonzero;stroke:none"
             id="path63602"
             inkscape:connector-curvature="0" />
        </g>
        <g
           id="g63604"
           transform="translate(348.0609,523.5269)">
          <path
             d="m 0,0 c -0.125,-0.365 -0.302,-0.713 -0.546,-1.013 -0.206,-0.254 -0.216,0.144 -0.241,0.299 -0.09,0.56 -0.145,1.075 0.008,1.649 0.225,0.844 0.584,1.378 0.693,1.533 C 0.054,2.67 0.093,2.43 0.106,2.39 0.347,1.773 0.266,0.781 0,0 m -5.508,-4.971 c -0.65,-0.927 -1.812,-1.472 -2.933,-1.485 -2.521,-0.029 -4.105,2.545 -4.579,4.731 -0.495,2.279 0.354,4.647 2.184,6.103 0.998,0.795 2.349,1.385 3.586,0.793 1.13,-0.54 1.858,-1.772 1.407,-2.962 0,0 -0.497,-0.987 -0.432,-1.953 0.048,-0.718 0.38,-1.155 0.743,-1.739 0.668,-1.075 0.772,-2.423 0.024,-3.488 m 6.169,-8.762 c 0.246,-0.258 0.781,-0.922 1.104,-0.447 0.274,0.402 0.198,1.027 0.363,1.485 0.165,0.457 0.433,0.722 0.884,0.885 0.253,0.092 -0.363,3.61 -0.417,3.878 C 2.188,-5.917 1.76,-1.266 1.575,0.505 1.508,1.143 1.435,1.769 1.241,2.39 1.095,2.859 0.915,3.683 0.257,3.588 -0.33,3.503 -0.742,2.977 -1.039,2.508 -1.338,2.036 -1.477,1.109 -1.623,1.15 c -0.254,0.071 -0.09,1.345 0.014,1.754 0.138,0.544 0.547,1.159 1.016,1.562 0.184,0.158 0.41,0.185 0.233,0.43 -0.977,1.346 -2.058,2.529 -3.438,3.48 -1.498,1.033 -3.419,1.329 -5.059,1.425 -1.839,0.108 -3.72,-0.057 -5.53,-0.374 -0.1,0.251 0.517,0.558 1.091,0.779 -0.027,0.136 -0.047,0.291 -0.063,0.427 -0.033,-0.015 -0.081,0.049 -0.14,0.227 -0.852,2.574 0.169,5.424 1.44,7.666 -3.872,-1.77 -7.604,-5.798 -7.633,-10.261 0.306,0.124 0.517,0.277 0.785,0.397 0.055,0.239 0.506,1.659 0.707,2.115 0.41,0.932 0.93,1.814 1.536,2.632 0.396,0.535 0.829,1.043 1.296,1.519 0.215,0.22 1.076,1.146 1.325,0.999 0.023,-0.172 -0.946,-2.017 -1.199,-2.929 -0.356,-1.28 -0.672,-2.589 -0.522,-3.92 -1.267,-0.406 -2.447,-1.04 -3.541,-1.792 -3.912,-2.689 -6.071,-5.468 -7.031,-8.912 -0.445,-1.597 -0.327,-3.217 -0.359,-3.649 0.023,-0.973 0.16,-2.675 1.207,-4.436 0.246,-0.384 1.03,-1.576 1.134,-1.712 0.48,-0.634 1.015,-1.226 1.596,-1.77 1.116,-1.046 3.478,-2.451 4.532,-2.754 0.302,-0.086 0.318,-0.106 0.446,-0.392 0.185,-0.411 1.239,-2.289 1.239,-2.289 0,0 1.778,1.61 1.937,1.747 0.221,0.19 0.315,0.19 0.6,0.183 0.813,-0.018 1.716,-0.023 2.494,0.229 -1.822,1.63 -2.816,4.183 -3.478,6.48 -0.366,1.271 -0.614,2.561 -0.789,3.868 -0.172,1.28 -0.268,2.593 -0.044,3.873 -0.754,0.081 -1.687,-0.29 -2.342,-0.622 -0.396,-0.202 -0.97,-0.491 -1.178,-0.907 -0.187,-0.374 -0.141,-0.834 -0.124,-1.239 0.683,0.215 2.734,1.066 2.956,0.839 0.171,-0.174 -1.859,-1.354 -2.549,-1.803 -0.284,-0.184 -0.307,-0.195 -0.243,-0.533 0.032,-0.165 0.331,-1.121 0.466,-1.425 0.735,0.391 1.494,0.734 2.283,0.999 0.559,0.187 -0.325,-0.504 -0.431,-0.588 -0.328,-0.259 -1.378,-1.045 -1.574,-1.178 0.077,-0.203 0.157,-0.405 0.242,-0.606 0.085,-0.199 0.173,-0.396 0.266,-0.592 0.097,-0.205 0.058,-0.329 0.295,-0.213 0.366,0.177 1.736,0.808 2.023,0.798 0.084,-0.273 -1.404,-1.299 -1.535,-1.407 -0.162,-0.133 -0.308,-0.139 -0.179,-0.345 0.137,-0.22 0.291,-0.428 0.446,-0.635 0.193,-0.258 0.187,-0.26 0.478,-0.113 0.146,0.073 1.416,0.688 1.452,0.586 0.042,-0.119 -0.544,-0.552 -0.643,-0.643 -0.172,-0.157 -0.346,-0.313 -0.524,-0.463 -0.199,-0.169 -0.086,-0.179 0.064,-0.349 0.209,-0.235 1.105,-1.102 1.838,-1.589 0.134,-0.089 0.637,-0.371 0.205,-0.372 -0.546,0.207 -1.075,0.457 -1.581,0.747 -1.06,0.608 -2.038,1.398 -2.771,2.381 -0.801,1.074 -1.427,2.294 -1.912,3.54 -0.448,1.154 -0.887,2.484 -0.517,3.72 0.378,1.266 1.576,1.994 2.75,2.411 0.701,0.25 1.433,0.406 2.173,0.477 0.217,0.021 0.324,-0.048 0.401,0.176 0.052,0.151 0.252,0.95 0.402,1.092 0.096,-0.198 0.046,-0.543 0.048,-0.762 0.02,-2.053 0.402,-4.766 0.723,-6.17 0.506,-2.22 1.342,-4.3 2.55,-6.231 0.601,-0.963 1.282,-1.876 2.028,-2.731 0.648,-0.744 1.326,-1.528 2.182,-2.035 1.777,-1.054 4.169,-0.641 6.028,-0.007 -0.864,0.599 -1.085,2.079 -0.999,3.043 0.089,0.988 0.569,2.179 1.748,2.127 0.649,-0.028 1.111,-0.417 1.537,-0.863"
             style="fill:#ffffff;fill-opacity:1;fill-rule:nonzero;stroke:none"
             id="path63606"
             inkscape:connector-curvature="0" />
        </g>
        <g
           id="g63608"
           transform="translate(321.3654,508.3199)">
          <path
             d="m 0,0 c -0.112,0.305 -0.21,0.596 -0.297,0.873 -0.791,0.116 -2.372,0.196 -4.215,-1.194 -1.247,-0.94 -1.843,-2.161 -2.102,-2.872 0.182,-0.254 0.367,-0.501 0.555,-0.74 C -5.042,-1.491 -2.677,0.206 0,0"
             style="fill:#ffffff;fill-opacity:1;fill-rule:nonzero;stroke:none"
             id="path63610"
             inkscape:connector-curvature="0" />
        </g>
        <g
           id="g63612"
           transform="translate(337.057,524.7884)">
          <path
             d="M 0,0 C 0.131,-0.429 0.279,-0.862 0.532,-1.236 0.6,-1.25 1.208,-0.811 1.707,-1.293 2.027,-1.602 2.044,-2.181 1.72,-2.56 2.305,-3.051 3.029,-3.362 3.778,-3.493 3.302,-1.735 1.81,-0.313 0,0"
             style="fill:#ffffff;fill-opacity:1;fill-rule:nonzero;stroke:none"
             id="path63614"
             inkscape:connector-curvature="0" />
        </g>
        <g
           id="g63616"
           transform="translate(308.9343,499.7114)">
          <path
             d="M 0,0 C 1.263,-1.007 3.676,-1.99 3.885,-1.749 4.07,-1.536 4.612,-0.93 5.208,-0.273 4.997,-0.212 4.669,-0.084 4.388,0.031 4.324,0.019 4.091,0.079 4.052,0.093 3.081,0.458 2.087,0.836 1.193,1.369 -0.207,2.203 -1.513,3.52 -2.343,4.994 -2.723,5.669 -2.866,6.387 -3.073,6.352 -3.278,6.318 -3.206,5.175 -2.988,4.457 -2.516,2.906 -1.403,1.119 0,0"
             style="fill:#ffffff;fill-opacity:1;fill-rule:nonzero;stroke:none"
             id="path63618"
             inkscape:connector-curvature="0" />
        </g>
        <g
           id="g63620"
           transform="translate(347.103,533.1744)">
          <path
             d="M 0,0 C 0.642,0.642 1.347,1.264 2.114,1.752 2.731,2.144 2.212,1.458 2.073,1.237 1.85,0.881 1.651,0.51 1.479,0.128 1.103,-0.706 0.641,-1.945 1.03,-2.575 1.727,-0.108 3.416,2.097 5.459,3.612 4.012,3.51 2.68,2.878 1.454,2.14 0.259,1.419 -0.897,0.557 -1.862,-0.455 c 0.39,-0.261 0.491,-0.377 0.87,-0.653 C -0.684,-0.719 -0.351,-0.351 0,0"
             style="fill:#ffffff;fill-opacity:1;fill-rule:nonzero;stroke:none"
             id="path63622"
             inkscape:connector-curvature="0" />
        </g>
        <g
           id="g63624"
           transform="translate(358.5442,492.3106)">
          <path
             d="M 0,0 C -0.488,-0.228 -1.032,-0.137 -1.032,-0.137 L -8.28,1.454 C -8.631,1.53 -8.754,1.469 -8.818,1.417 -9.093,1.19 -9.03,0.769 -9.005,0.396 l 0,0.001 c 0.122,-0.026 0.313,-0.079 0.595,-0.144 0,0 -10e-4,0 -10e-4,0 0.033,0 0.076,-0.005 0.134,-0.017 0.158,-0.034 5.759,-1.326 5.95,-1.371 0.921,-0.212 2.068,-0.421 3.053,-0.239 0.721,0.133 1.415,0.549 2.039,0.916 0.031,0.7 -0.078,1.41 -0.267,2.083 C 2.007,1.239 0.427,0.2 0,0"
             style="fill:#ffffff;fill-opacity:1;fill-rule:nonzero;stroke:none"
             id="path63626"
             inkscape:connector-curvature="0" />
        </g>
        <g
           id="g63628"
           transform="translate(327.4755,486.5505)">
          <path
             d="M 0,0 C 1.241,-0.5 2.326,-0.387 2.824,-0.289 3.14,0.038 3.455,0.366 3.772,0.693 2.066,0.096 0.096,0.675 -0.986,2.106 -1.181,1.835 -1.377,1.566 -1.573,1.297 -1.289,0.945 -0.686,0.276 0,0"
             style="fill:#ffffff;fill-opacity:1;fill-rule:nonzero;stroke:none"
             id="path63630"
             inkscape:connector-curvature="0" />
        </g>
        <g
           id="g63632"
           transform="translate(334.3216,481.7815)">
          <path
             d="M 0,0 C -0.268,0.181 -0.596,0.266 -0.881,0.418 -1.012,0.488 -1.138,0.566 -1.258,0.655 -1.436,0.673 -1.614,0.681 -1.793,0.68 -2.497,0.678 -3.192,0.543 -3.877,0.392 -2.724,-0.784 -5.291,-1.7 -6.069,-2.035 c -0.778,-0.336 -1.389,-0.63 -2.093,-0.646 -0.835,-0.02 -0.647,0.738 -0.447,1.257 -0.607,-0.37 -1.177,-0.805 -1.684,-1.304 -0.118,-0.116 -0.232,-0.235 -0.343,-0.359 -0.068,-0.09 -0.138,-0.191 -0.217,-0.303 0.06,0.014 0.074,-0.027 -0.018,-0.178 -0.164,-0.271 -0.343,-0.534 -0.479,-0.821 -0.299,-0.634 0.13,-0.833 0.711,-0.73 3.032,0.538 6.737,2.129 9.735,4.007 C -0.688,-0.977 0.423,-0.287 0,0"
             style="fill:#ffffff;fill-opacity:1;fill-rule:nonzero;stroke:none"
             id="path63634"
             inkscape:connector-curvature="0" />
        </g>
        <g
           id="g63636"
           transform="translate(323.9451,504.6877)">
          <path
             d="M 0,0 C -0.219,0.236 -0.458,0.501 -0.733,0.644 -0.974,0.771 -1.432,0.613 -1.684,0.537 -3.399,-0.002 -4.886,-1.66 -5.263,-3.412 c -0.076,-0.074 0.237,-0.343 0.775,-0.684 0.238,0.637 0.761,1.799 1.663,2.714 0.791,0.803 2.089,1.247 2.774,1.437 C -0.034,0.036 -0.017,0.018 0,0"
             style="fill:#ffffff;fill-opacity:1;fill-rule:nonzero;stroke:none"
             id="path63638"
             inkscape:connector-curvature="0" />
        </g>
        <g
           id="g63640"
           transform="translate(328.7716,491.3963)">
          <path
             d="m 0,0 c 0.009,0.011 0.019,0.023 0.029,0.035 -0.288,-0.344 -0.537,-0.63 -0.665,-0.732 1.407,-0.761 3.005,-0.985 4.558,-0.589 0.515,0.131 1.085,0.269 1.452,0.73 0.104,0.13 0.268,0.371 0.458,0.667 C 5.119,-0.155 3.695,-0.618 2.354,-0.647 1.475,-0.665 0.505,-0.251 0,0"
             style="fill:#ffffff;fill-opacity:1;fill-rule:nonzero;stroke:none"
             id="path63642"
             inkscape:connector-curvature="0" />
        </g>
        <g
           id="g63644"
           transform="translate(310.3509,485.4919)">
          <path
             d="M 0,0 C 0.188,0.161 0.377,0.301 0.522,0.408 0.206,0.175 -0.327,-0.221 -0.579,-0.632 0.862,-1.428 2.33,-1.7 3.952,-1.343 4.699,-1.179 5.415,-0.847 6.016,-0.38 6.265,-0.187 6.498,0.053 6.702,0.29 5.617,-0.319 4.37,-0.68 2.947,-0.679 1.663,-0.678 0.419,-0.184 0,0"
             style="fill:#ffffff;fill-opacity:1;fill-rule:nonzero;stroke:none"
             id="path63646"
             inkscape:connector-curvature="0" />
        </g>
        <g
           id="g63648"
           transform="translate(310.8727,485.9001)">
          <path
             d="M 0,0 C 0.022,0.016 0.042,0.031 0.062,0.046 0.042,0.031 0.022,0.016 0,0"
             style="fill:#ffffff;fill-opacity:1;fill-rule:nonzero;stroke:none"
             id="path63650"
             inkscape:connector-curvature="0" />
        </g>
        <g
           id="g63652"
           transform="translate(315.2813,476.2875)">
          <path
             d="m 0,0 c -0.613,-0.194 -1.078,-0.065 -1.197,0.007 l -1.22,-0.162 c 0.109,-0.128 0.032,-0.384 -0.081,-0.517 -0.144,-0.17 -0.336,-0.309 -0.552,-0.379 -0.93,-0.304 -1.884,-0.385 -2.851,-0.291 -0.474,0.047 -0.879,0.17 -1.183,0.549 -0.078,0.097 -0.041,0.149 -0.17,0.174 -0.112,0.022 -1.367,0.193 -2.391,0.727 -0.103,-0.062 -0.234,-0.148 -0.37,-0.239 0.081,-0.121 -0.371,-0.663 -0.477,-0.818 -0.103,-0.151 -0.403,-0.48 -0.216,-0.651 0.257,-0.239 2.649,-0.631 3.717,-0.675 3.703,-0.152 5.908,0.36 7.266,1.263 0.291,0.194 0.426,0.273 0.181,0.576 C 0.354,-0.31 0.182,0.057 0,0"
             style="fill:#ffffff;fill-opacity:1;fill-rule:nonzero;stroke:none"
             id="path63654"
             inkscape:connector-curvature="0" />
        </g>
        <g
           id="g63656"
           transform="translate(353.9401,499.7523)">
          <path
             d="M 0,0 C 0.205,0.384 0.391,0.778 0.558,1.181 0.119,1.758 -0.666,2.334 -1.42,2.559 -3.008,3.032 -4.438,2.854 -5.299,2.466 -5.54,2.357 -5.72,2.263 -5.856,2.182 -5.822,1.975 -5.807,1.778 -5.805,1.523 -3.464,2.639 -0.532,1.415 0,0"
             style="fill:#ffffff;fill-opacity:1;fill-rule:nonzero;stroke:none"
             id="path63658"
             inkscape:connector-curvature="0" />
        </g>
        <g
           id="g63660"
           transform="translate(307.4673,481.9232)">
          <path
             d="m 0,0 c 0.351,-0.356 1.031,-0.956 1.889,-1.268 0.872,-0.318 1.92,-0.262 2.455,-0.203 0.721,0.547 1.423,1.066 1.547,1.224 C 4.455,-0.627 2.846,-0.679 1.548,0.286 0.979,0.708 0.685,0.968 0.685,0.967 0.583,0.832 0.312,0.451 0,0"
             style="fill:#ffffff;fill-opacity:1;fill-rule:nonzero;stroke:none"
             id="path63662"
             inkscape:connector-curvature="0" />
        </g>
        <g
           id="g63664"
           transform="translate(371.985,498.5871)">
          <path
             d="m 0,0 c 0,0.003 -0.001,0.006 -0.001,0.009 -0.001,0.008 -0.001,0.016 -0.002,0.024 0,0.002 -0.001,0.005 -0.001,0.007 -0.001,0.011 -0.002,0.023 -0.004,0.036 l 0,0 c -0.045,0.436 -0.369,3.301 -0.37,3.306 -0.005,0.045 -0.133,1.115 -0.13,1.092 0.005,-0.047 -0.209,1.739 -0.28,1.991 0,0 -0.562,-0.668 -0.562,-0.669 C -1.355,5.783 -1.382,5.711 -1.384,5.706 -1.528,5.343 -1.838,4.817 -2.112,4.378 -2.386,3.938 -2.624,3.587 -2.624,3.587 c 0.285,-1.114 0.609,-4.972 0.567,-5.555 0.582,0.478 2.088,1.649 2.06,1.942 C 0.002,-0.018 0.001,-0.01 0,0"
             style="fill:#ffffff;fill-opacity:1;fill-rule:nonzero;stroke:none"
             id="path63666"
             inkscape:connector-curvature="0" />
        </g>
        <g
           id="g63668"
           transform="translate(317.8733,511.2069)">
          <path
             d="m 0,0 c -0.008,-0.097 0.026,-0.198 0.059,-0.294 0.091,-0.208 0.208,-0.401 0.469,-0.432 0.177,-0.021 0.355,0.183 0.4,0.264 0.1,0.18 0.084,0.626 -0.107,0.759 C 0.8,0.311 0.785,0.318 0.8,0.343 0.88,0.349 0.97,0.37 1.044,0.398 1.203,0.462 1.391,0.57 1.384,0.768 1.383,0.903 1.334,1.05 1.196,1.123 1.057,1.196 0.913,1.218 0.769,1.187 0.566,1.137 0.319,0.911 0.319,0.911 L -0.294,1.101 -0.311,1.096 C -0.592,0.911 -0.783,0.519 -0.726,0.184 -0.488,0.116 -0.246,0.059 -0.011,0.01 L 0,0"
             style="fill:#ffffff;fill-opacity:1;fill-rule:nonzero;stroke:none"
             id="path63670"
             inkscape:connector-curvature="0" />
        </g>
        <g
           id="g63672"
           transform="translate(314.6561,510.5847)">
          <path
             d="m 0,0 c -0.059,-0.148 -0.077,-0.326 -0.04,-0.447 0.038,-0.12 0.118,-0.174 0.227,-0.189 0.102,-0.004 0.198,0.024 0.287,0.056 0.089,0.033 0.227,0.022 0.311,-0.055 0.071,-0.09 0.12,-0.209 0.23,-0.266 0.133,-0.071 0.295,-0.067 0.41,0.033 0.11,0.068 0.184,0.172 0.236,0.297 0.1,0.21 0.046,0.458 -0.083,0.641 -0.047,0.047 -0.095,0.108 -0.095,0.108 0,0 0.418,0.666 0.542,0.877 0.2,0.342 0.482,0.886 0.604,1.119 C 2.752,2.406 3.031,3.098 3.085,3.092 3.293,3.071 3.555,3.113 3.78,3.396 3.871,3.512 3.902,3.664 3.836,3.798 3.707,4.017 3.42,4.054 3.194,4.019 3.129,4.01 3.127,4.002 3.078,4.057 3.078,4.077 2.942,4.516 2.487,4.311 2.276,4.215 2.2,3.931 2.218,3.718 2.224,3.629 2.358,3.414 2.322,3.36 2.188,3.151 1.544,2.087 1.544,2.087 1.257,1.586 0.972,1.077 0.759,0.538 0.281,0.607 0.132,0.315 0,0"
             style="fill:#ffffff;fill-opacity:1;fill-rule:nonzero;stroke:none"
             id="path63674"
             inkscape:connector-curvature="0" />
        </g>
        <g
           id="g63676"
           transform="translate(315.9025,512.8264)">
          <path
             d="m 0,0 c -0.146,0.041 -1.119,0.299 -1.163,0.308 0.02,0.19 0.147,0.396 -0.091,0.647 C -1.401,1.11 -1.812,1.172 -1.989,0.868 -2.053,0.734 -2.049,0.555 -1.993,0.414 -1.94,0.282 -1.909,0.211 -1.769,0.163 -1.766,0.152 -2.172,0.149 -2.29,-0.293 c -0.043,-0.162 0.044,-0.331 0.146,-0.441 0.149,-0.142 0.365,-0.169 0.552,-0.095 0.113,0.048 0.355,0.261 0.355,0.261 0,0 0.57,-0.274 0.805,-0.347 C -0.338,-0.591 -0.198,-0.248 0,0"
             style="fill:#ffffff;fill-opacity:1;fill-rule:nonzero;stroke:none"
             id="path63678"
             inkscape:connector-curvature="0" />
        </g>
        <g
           id="g63680"
           transform="translate(336.737,531.4147)">
          <path
             d="m 0,0 c -0.883,0.062 -4.274,0 -7.089,-1.877 -2.815,-1.876 -4.749,-4.032 -6.49,-8.673 -0.227,-0.606 -0.552,-2.337 -0.303,-2.387 0.379,-0.076 0.986,1.705 1.327,2.425 0.927,1.957 2.615,3.98 4.472,5.571 2.83,2.426 5.419,3.828 8.396,4.316 C 1.685,-0.401 0.883,-0.062 0,0"
             style="fill:#b4b4b4;fill-opacity:1;fill-rule:nonzero;stroke:none"
             id="path63682"
             inkscape:connector-curvature="0" />
        </g>
        <g
           id="g63684"
           transform="translate(338.7775,522.2284)">
          <path
             d="M 0,0 C 0.324,0.379 0.307,0.958 -0.013,1.267 -0.512,1.749 -1.121,1.31 -1.188,1.324 -1.442,1.698 -1.589,2.131 -1.72,2.56 0.089,2.247 1.582,0.825 2.057,-0.933 1.308,-0.802 0.584,-0.491 0,0 M 2.034,6.47 C 0.796,7.061 -0.554,6.471 -1.553,5.676 -3.382,4.22 -4.232,1.852 -3.737,-0.427 c 0.475,-2.186 2.058,-4.76 4.579,-4.73 1.122,0.013 2.284,0.557 2.933,1.484 C 4.523,-2.607 4.42,-1.26 3.752,-0.185 3.388,0.4 3.057,0.836 3.008,1.554 2.944,2.52 3.441,3.507 3.441,3.507 3.892,4.697 3.164,5.929 2.034,6.47"
             style="fill:#292723;fill-opacity:1;fill-rule:nonzero;stroke:none"
             id="path63686"
             inkscape:connector-curvature="0" />
        </g>
        <g
           id="g63688"
           transform="translate(347.5153,522.5142)">
          <path
             d="M 0,0 C 0.244,0.3 0.421,0.648 0.546,1.013 0.812,1.794 0.893,2.785 0.652,3.402 0.638,3.442 0.6,3.682 0.459,3.481 0.351,3.326 -0.008,2.791 -0.233,1.947 -0.386,1.373 -0.331,0.859 -0.242,0.299 -0.217,0.144 -0.206,-0.254 0,0"
             style="fill:#292723;fill-opacity:1;fill-rule:nonzero;stroke:none"
             id="path63690"
             inkscape:connector-curvature="0" />
        </g>
        <g
           id="g63692"
           transform="translate(361.3093,491.8526)">
          <path
             d="m 0,0 c -0.625,-0.367 -1.318,-0.783 -2.039,-0.916 -0.986,-0.182 -2.132,0.027 -3.053,0.239 -0.191,0.045 -5.792,1.337 -5.95,1.371 -0.401,0.085 -0.16,-0.154 0.079,-0.268 0.362,-0.172 0.748,-0.37 1.128,-0.498 -0.515,-1.189 -1.89,-2.535 -3.261,-1.659 -0.609,0.39 -1.085,1.207 -1.388,1.846 -0.336,0.706 -0.622,1.53 -0.369,2.3 0.11,0.335 0.213,0.661 0.387,0.97 0.11,0.196 0.643,0.832 0.07,0.501 -0.627,-0.361 -1.055,-1.069 -1.212,-1.761 -0.162,-0.715 -0.073,-1.474 0.176,-2.159 0.234,-0.643 0.633,-1.446 1.197,-1.901 -1.333,-0.22 -2.026,1.029 -2.497,2.093 -0.25,0.565 -0.436,1.139 -0.326,1.762 0.117,0.667 0.398,1.241 0.706,1.833 -0.231,0.29 -0.831,-0.477 -0.979,-0.694 -0.321,-0.472 -0.496,-1.037 -0.53,-1.605 -0.073,-1.206 0.562,-2.537 1.384,-3.393 -1.015,-0.201 -1.68,0.918 -2.091,1.665 -0.495,0.898 -0.836,1.826 -0.514,2.829 0.025,0.1 0.278,0.517 0.182,0.586 -0.126,0.089 -0.395,-0.184 -0.486,-0.273 -0.325,-0.32 -0.512,-0.735 -0.508,-1.191 -0.047,-1.121 0.444,-2.162 1.012,-3.098 -1.041,0.142 -1.524,1.349 -1.9,2.194 -0.473,1.064 -0.695,2.509 0.635,3.049 0.255,0.103 0.532,0.149 0.807,0.142 0.273,-0.008 0.445,-0.152 0.647,0.057 0.439,0.453 0.858,0.878 1.579,0.755 0.382,-0.064 0.494,-0.224 0.828,0.04 0.225,0.177 0.515,0.329 0.8,0.359 1.075,0.11 1.239,-0.431 1.584,-0.436 0.273,-0.005 0.632,0.479 1.332,0.419 0.469,-0.04 0.892,-0.398 0.847,-0.901 -0.041,-0.454 -0.446,-0.957 -0.655,-1.346 -0.323,-0.6 -0.557,-1.087 -0.348,-1.801 0.122,-0.415 0.377,-0.908 0.706,-1.276 0.057,-0.064 0.21,-0.255 0.267,-0.096 0.095,0.265 -0.005,0.66 -0.009,0.943 -0.005,0.407 -0.14,0.931 0.179,1.194 0.064,0.052 0.186,0.113 0.537,0.037 l 7.249,-1.591 c 0,0 0.544,-0.091 1.032,0.137 0.427,0.2 2.007,1.239 2.498,1.625 C -0.078,1.41 0.031,0.7 0,0 m -25.285,2.094 c -0.389,-0.789 -1.511,-2.645 -1.878,-3.106 -0.368,-0.461 -0.938,-0.599 -1.453,-0.73 -1.553,-0.396 -3.151,-0.172 -4.558,0.589 0.364,0.29 1.7,2.058 2.138,2.443 0.033,0.173 -0.532,-0.126 -0.543,-0.132 -0.295,-0.144 -5.912,-2.709 -6.047,-2.764 -0.124,-0.051 -0.329,0.6 -0.362,0.712 -0.365,1.261 0.047,2.688 0.603,3.83 0.288,0.591 0.626,1.155 0.992,1.701 0.055,0.083 0.445,0.691 0.093,0.387 -0.253,-0.22 -0.503,-0.45 -0.743,-0.684 -0.84,-0.816 -1.588,-1.777 -2,-2.883 -0.41,-1.103 -0.408,-2.577 0.52,-3.436 -2.378,-0.91 -6.1,-2.386 -8.922,-2.026 -0.516,0.066 -1.005,0.307 -1.427,0.613 -0.963,0.7 -1.271,1.847 -1.216,2.995 0.026,0.539 0.14,1.062 0.299,1.577 0.153,0.497 0.365,1.424 0.801,1.731 1.066,0.75 2.219,1.369 3.407,1.904 1.212,0.544 2.477,0.985 3.739,1.397 0.642,0.209 1.305,0.515 1.974,0.326 0.649,-0.184 1.307,-0.337 1.959,-0.508 -3.041,-1.307 -5.072,-2.85 -6.102,-3.696 -0.234,-0.192 -0.125,-0.217 0.086,-0.181 1.325,0.652 2.673,1.258 4.035,1.831 1.802,0.759 5.191,2.059 8.127,2.58 2.101,0.372 6.291,0.708 7.073,-0.014 0.223,-0.206 0.317,-0.538 0.342,-0.834 0.022,-1.272 -0.379,-2.493 -0.937,-3.622 m -6.323,-8.306 c -0.58,-0.222 -1.97,-0.959 -2.419,-1.36 -0.086,-0.077 -0.686,-0.55 -0.295,-0.496 0.271,0.037 1.469,0.641 1.796,0.759 0.715,0.259 1.456,0.451 2.213,0.531 1.009,0.106 3.012,0.169 2.807,-1.318 -0.028,-0.204 -0.007,-0.247 -0.225,-0.218 -1.611,0.213 -5.032,-0.537 -7.261,-1.833 -0.828,-0.481 -2.223,-1.482 -2.683,-2.025 -0.068,-0.198 -0.327,0.082 -0.407,0.153 -1.043,0.91 -0.561,2.277 -0.104,3.365 0.511,1.214 1.174,2.354 1.912,3.432 0.469,0.686 0.969,1.35 1.454,2.026 1.082,-1.431 3.052,-2.01 4.758,-1.413 -0.516,-0.534 -1.031,-1.068 -1.546,-1.603 M -47.992,4.921 c 0.975,1.326 2.031,2.594 3.176,3.777 0.251,0.26 0.242,0.279 0.482,0.052 0.268,-0.254 1.975,-1.249 2.759,-1.59 -2.138,-0.45 -5.026,-1.612 -6.432,-2.317 0.005,0.026 0.01,0.052 0.015,0.078 m 5.364,4.502 c 0.377,1.752 1.865,3.41 3.579,3.949 0.253,0.076 0.71,0.235 0.952,0.108 0.33,-0.173 0.609,-0.521 0.863,-0.783 0.719,-0.741 1.502,-1.416 2.321,-2.043 -0.804,-0.595 -1.46,-1.494 -1.544,-2.515 -0.01,-0.12 -0.07,-0.528 0.058,-0.611 0.166,-0.031 0.263,0.418 0.327,0.536 0.689,1.27 2.056,2.366 3.835,2.586 1.15,0.141 2.25,-0.263 3.255,-0.784 -1.092,-0.352 -2.155,-0.84 -3.042,-1.579 -0.254,-0.211 -0.379,-0.32 -0.706,-0.401 -1.961,-0.492 -3.704,-1.212 -3.986,-1.158 -0.342,0.066 -1.655,0.325 -2.889,0.849 -1.714,0.727 -3.177,1.695 -3.023,1.846 m 29.452,29.324 c -0.389,0.63 0.073,1.869 0.449,2.703 0.172,0.382 0.371,0.753 0.594,1.108 0.138,0.222 0.657,0.908 0.041,0.516 -0.768,-0.488 -1.473,-1.111 -2.114,-1.752 -0.351,-0.351 -0.684,-0.72 -0.992,-1.109 -0.38,0.276 -0.48,0.393 -0.871,0.654 0.966,1.012 2.122,1.874 3.317,2.594 1.226,0.739 2.557,1.371 4.005,1.473 -2.043,-1.516 -3.732,-3.72 -4.429,-6.187 M 11.502,12.774 C 11.3,12.871 9.936,13.529 9.858,13.302 9.988,13.094 10.632,7.185 10.678,6.709 10.707,6.416 9.2,5.245 8.619,4.766 8.661,5.349 8.336,9.208 8.052,10.321 c 0,0 1.094,1.615 1.29,2.259 C 9.149,12.689 5.532,8.677 5.073,8.206 2.985,6.068 -2.476,1.055 -3.457,0.987 c -0.545,-0.038 -1.36,0.236 -2.191,0.45 0.953,0.388 1.631,1.237 1.282,2.314 -0.458,1.416 -1.933,1.417 -3.058,0.85 -0.077,0.324 -0.167,0.646 -0.285,0.958 0.564,0.543 1.4,1.934 1.733,2.562 0.614,1.158 1.105,2.436 1.406,3.712 0.62,2.627 0.037,5.418 -1.746,7.47 -0.84,0.966 -1.864,1.778 -2.987,2.392 -0.334,0.182 -0.291,0.249 -0.339,0.618 -0.381,2.885 -0.697,6.524 -0.805,9.242 -0.054,1.377 0.115,2.851 -0.501,4.126 -0.262,0.542 -1.184,1.735 -1.282,1.85 -0.14,0.166 -0.064,0.248 -0.015,0.45 0.616,2.552 2.301,4.845 3.322,5.961 0.27,0.296 1.389,1.077 0.866,1.478 -0.675,0.517 -2.858,-0.179 -3.787,-0.555 -2.33,-0.944 -3.762,-2.051 -5.458,-3.408 -0.162,0.06 -1.245,0.44 -1.633,0.544 -2.126,0.57 -4.933,0.631 -6.747,0.166 -0.301,-0.077 -2.12,-0.648 -1.954,-1.065 1.811,0.316 3.692,0.481 5.53,0.374 1.641,-0.096 3.562,-0.393 5.06,-1.426 1.38,-0.951 2.461,-2.133 3.437,-3.48 0.178,-0.245 -0.049,-0.272 -0.233,-0.43 -0.468,-0.402 -0.877,-1.017 -1.016,-1.562 -0.104,-0.408 -0.268,-1.683 -0.013,-1.754 0.146,-0.041 0.285,0.887 0.584,1.358 0.296,0.469 0.708,0.996 1.296,1.08 0.658,0.095 0.838,-0.729 0.984,-1.198 0.193,-0.621 0.267,-1.247 0.334,-1.885 0.184,-1.771 0.612,-6.422 1.019,-8.436 0.055,-0.269 0.671,-3.787 0.418,-3.879 -0.451,-0.163 -0.72,-0.428 -0.884,-0.884 -0.166,-0.459 -0.089,-1.084 -0.363,-1.486 -0.323,-0.474 -0.859,0.19 -1.105,0.447 -0.426,0.447 -0.887,0.835 -1.536,0.864 -1.179,0.051 -1.66,-1.14 -1.748,-2.127 -0.087,-0.965 0.135,-2.445 0.999,-3.043 -1.859,-0.635 -4.251,-1.047 -6.028,0.006 -0.857,0.508 -1.534,1.292 -2.182,2.035 -0.746,0.856 -1.427,1.768 -2.029,2.731 -1.207,1.932 -2.043,4.012 -2.55,6.231 -0.32,1.404 -0.703,4.117 -0.722,6.171 -0.002,0.218 0.048,0.564 -0.049,0.761 -0.149,-0.142 -0.349,-0.941 -0.401,-1.091 -0.078,-0.225 -0.185,-0.156 -0.401,-0.177 -0.74,-0.071 -1.473,-0.227 -2.174,-0.476 -1.173,-0.418 -2.371,-1.145 -2.75,-2.412 -0.37,-1.236 0.069,-2.566 0.518,-3.72 0.484,-1.246 1.111,-2.465 1.911,-3.54 0.734,-0.983 1.712,-1.773 2.772,-2.38 0.506,-0.29 1.035,-0.54 1.581,-0.747 0.432,10e-4 -0.071,0.282 -0.205,0.371 -0.734,0.488 -1.629,1.354 -1.838,1.59 -0.151,0.17 -0.264,0.18 -0.064,0.348 0.178,0.151 0.351,0.306 0.524,0.463 0.099,0.091 0.685,0.524 0.643,0.643 -0.036,0.102 -1.306,-0.512 -1.452,-0.586 -0.292,-0.147 -0.286,-0.145 -0.478,0.113 -0.155,0.207 -0.31,0.416 -0.447,0.636 -0.128,0.205 0.017,0.211 0.179,0.344 0.132,0.108 1.62,1.134 1.536,1.407 -0.288,0.011 -1.658,-0.62 -2.023,-0.798 -0.237,-0.116 -0.199,0.009 -0.296,0.213 -0.092,0.196 -0.181,0.393 -0.265,0.593 -0.085,0.2 -0.166,0.402 -0.243,0.606 0.197,0.133 1.247,0.919 1.574,1.177 0.107,0.085 0.99,0.776 0.432,0.588 -0.79,-0.265 -1.548,-0.608 -2.283,-0.998 -0.136,0.303 -0.435,1.259 -0.466,1.424 -0.064,0.339 -0.041,0.349 0.242,0.534 0.69,0.449 2.72,1.629 2.55,1.803 -0.222,0.226 -2.274,-0.624 -2.956,-0.84 -0.018,0.405 -0.063,0.865 0.124,1.239 0.207,0.416 0.782,0.706 1.178,0.907 0.655,0.333 1.588,0.703 2.341,0.622 -0.224,-1.28 -0.127,-2.593 0.044,-3.873 0.176,-1.306 0.424,-2.596 0.79,-3.868 0.662,-2.296 1.656,-4.85 3.477,-6.48 -0.777,-0.252 -1.68,-0.247 -2.493,-0.228 -0.285,0.006 -0.38,0.007 -0.6,-0.183 -0.16,-0.138 -1.938,-1.747 -1.938,-1.747 0,0 -1.054,1.878 -1.238,2.288 -0.129,0.286 -0.144,0.306 -0.446,0.393 -1.054,0.302 -3.417,1.708 -4.533,2.754 -0.58,0.543 -1.115,1.135 -1.596,1.769 -0.124,0.163 -1.215,1.828 -1.209,1.832 -0.29,-0.184 0.543,-1.895 1.106,-2.772 2.444,-3.806 4.316,-3.805 5.464,-4.557 0,0 2.186,-3.08 2.318,-2.993 0.139,0.093 2.443,2.152 2.443,2.152 1.389,0.143 2.099,0.056 3.486,0.581 0.758,-0.567 2.169,-1.974 4.881,-2.42 1.374,-0.226 2.778,-0.071 4.133,0.207 0.959,0.196 2.011,0.385 2.921,0.751 0.831,0.335 1.896,0.677 2.28,1.564 0.351,0.811 0.381,1.821 0.413,2.692 0.043,1.138 0.014,2.277 -0.055,3.414 2.402,-1.405 3.438,-4.203 3.528,-6.86 0.07,-2.073 -0.503,-4.12 -1.475,-5.942 -0.533,1.414 -3.464,2.639 -5.805,1.522 -0.003,0.41 -0.039,0.668 -0.138,1.064 -0.055,0.218 -0.477,1.603 -0.775,1.546 0.039,0.007 0.138,-1.661 0.129,-1.843 -0.016,-0.318 -0.032,-1.532 -0.326,-1.834 -0.135,-0.14 -1.15,-0.504 -1.588,-1.263 -0.264,-0.459 0.011,-0.24 0.265,-0.081 1.996,1.252 4.779,0.967 6.222,-0.971 0.362,-0.487 0.604,-1.055 0.739,-1.645 0.047,-0.205 0.132,-0.273 -0.09,-0.351 -0.149,-0.053 -1.149,-0.436 -1.516,-0.521 -0.3,-0.263 0.384,-0.218 0.504,-0.217 0.339,10e-4 0.678,0.019 1.015,0.054 0.701,0.073 1.353,0.237 2.018,0.459 0.555,0.187 1.154,-0.006 1.279,-0.634 0.122,-0.615 -0.359,-0.96 -0.853,-1.244 -0.123,-0.07 -0.439,-0.245 -0.579,-0.21 -0.156,0.039 -3.152,0.78 -4.413,1.086 0.137,0.539 0.543,0.897 0.573,1.508 0.026,0.521 -0.181,1.098 -0.604,1.422 -0.473,0.361 -1.038,0.543 -1.634,0.518 -0.276,-0.011 -0.551,-0.065 -0.811,-0.159 -0.195,-0.07 -0.246,0.028 -0.427,0.111 -0.545,0.251 -1.191,0.194 -1.735,-0.028 -0.253,-0.102 -0.492,-0.243 -0.7,-0.42 -0.325,0.159 -0.646,0.248 -1.009,0.228 -0.582,-0.033 -1.134,-0.303 -1.511,-0.747 -0.09,-0.106 -0.17,-0.22 -0.238,-0.34 -0.21,0.005 -0.41,0.088 -0.621,0.076 -0.374,0.009 -0.734,-0.135 -1.055,-0.315 -10e-4,0.67 -0.029,1.353 -0.231,1.998 -0.225,0.721 -0.691,1.166 -1.174,1.717 0.394,0.431 1.531,1.558 2.13,2.05 1.184,0.973 1.527,1.007 1.479,1.162 -0.191,0.087 -1.427,-0.596 -1.94,-0.879 -0.393,-0.216 -1.591,-0.923 -2.278,-1.441 -0.185,-0.14 -0.399,-0.284 -0.541,-0.237 -0.534,0.176 -1.23,0.405 -1.737,0.444 -0.279,0.021 -0.988,0.071 -0.361,-0.163 1.165,-0.436 3.369,-2.027 3.55,-3.012 0.19,-1.028 0.06,-3.18 -0.42,-4.054 -0.259,-0.473 -1.056,-0.965 -1.586,-0.6 0.849,1.66 1.899,4.231 0.186,5.704 -1.467,1.261 -4.321,1.044 -5.941,1.026 0.753,0.577 1.913,0.98 2.216,1.064 0.195,0.053 0.76,0.114 0.918,0.236 0.031,0.024 -1.832,1.296 -3.328,1.695 -1.261,0.337 -2.428,0.449 -3.65,-0.076 -0.095,-0.041 -0.244,-0.166 -0.37,-0.084 -0.686,0.446 -2.084,1.71 -2.522,2.176 -0.855,0.912 -1.556,2.002 -2.164,3.089 -1.407,2.512 -1.551,3.776 -1.663,5.279 -0.01,0.126 -0.062,0.125 -0.154,0.068 -0.119,-0.074 -0.103,-0.213 -0.123,-0.355 -0.142,-1.027 -0.09,-2.538 0.813,-5.011 -2.677,0.206 -5.042,-1.49 -6.059,-3.933 -1.186,1.51 -2.294,3.34 -2.766,5.217 -0.427,1.696 -0.473,3.77 0.317,5.373 0.82,1.663 2.386,2.862 4.009,3.681 1.614,0.814 3.046,0.982 3.705,1.002 0.251,0.008 0.177,-0.109 0.229,-0.321 0.056,-0.227 0.248,-1.199 0.557,-1.158 0.06,0.283 -0.108,2.015 0.367,3.72 0.961,3.445 3.12,6.223 7.032,8.912 1.094,0.752 2.274,1.386 3.541,1.792 -0.151,1.332 0.166,2.64 0.521,3.921 0.253,0.911 1.223,2.756 1.2,2.929 -0.25,0.147 -1.11,-0.78 -1.326,-1 -0.466,-0.475 -0.9,-0.984 -1.296,-1.519 -0.605,-0.818 -1.126,-1.7 -1.535,-2.631 -0.201,-0.457 -0.652,-1.876 -0.707,-2.116 -0.269,-0.119 -0.479,-0.273 -0.785,-0.397 0.028,4.463 3.761,8.491 7.632,10.261 -1.271,-2.242 -2.291,-5.092 -1.439,-7.666 0.123,-0.372 0.197,-0.251 0.197,0.072 -10e-4,0.312 0.173,2.227 0.318,2.934 0.146,0.706 0.738,2.484 1.355,3.621 0.251,0.461 0.821,1.129 0.795,1.519 -0.027,0.39 -0.456,0.349 -0.721,0.28 -2.545,-0.659 -5.767,-2.796 -7.999,-6.467 -0.966,-1.588 -1.3,-2.964 -1.525,-4.445 -0.06,-0.395 -0.052,-1.061 -0.185,-1.134 -1.88,-1.03 -4.288,-3.563 -5.449,-6.451 -0.579,-1.442 -0.658,-3.419 -0.701,-3.645 -0.021,-0.106 -1.267,-0.115 -2.141,-0.312 -1.851,-0.417 -3.791,-1.25 -5.236,-2.791 -0.708,-0.754 -1.213,-1.544 -1.689,-2.456 -0.852,-1.633 -0.949,-3.857 -0.497,-5.613 0.505,-1.96 1.26,-3.857 2.51,-5.472 0.718,-0.927 1.502,-1.847 2.39,-2.614 -0.674,-0.662 -2.761,-2.987 -3.165,-3.45 -0.209,-0.241 -2.623,0.742 -3.885,1.749 -1.403,1.119 -2.516,2.905 -2.988,4.457 -0.218,0.718 -0.29,1.861 -0.085,1.895 0.207,0.034 0.35,-0.684 0.73,-1.358 0.83,-1.474 2.136,-2.791 3.536,-3.625 0.894,-0.533 1.888,-0.912 2.859,-1.276 0.056,-0.021 0.521,-0.138 0.287,0.009 -0.194,0.123 -1.408,0.941 -1.811,1.245 -1.571,1.184 -3.21,2.553 -4.223,4.27 -0.268,0.452 -0.494,0.921 -0.728,1.392 -0.177,0.358 -0.727,0.579 -1.06,0.256 -0.644,-0.624 -0.482,-1.921 -0.296,-2.727 0.453,-1.973 1.404,-3.576 2.87,-5.026 0.968,-0.959 2.435,-2.024 3.807,-2.546 -1.116,-1.449 -2.134,-3.202 -2.213,-5.099 -0.085,-2.03 1.086,-3.82 2.883,-4.722 1.619,-0.814 3.619,-0.425 5.304,-0.087 -0.048,-0.024 -0.675,-1.064 -1.439,-1.658 -0.601,-0.466 -1.318,-0.798 -2.065,-0.963 -1.621,-0.356 -3.089,-0.084 -4.53,0.712 0.269,0.439 0.86,0.861 1.162,1.085 0.493,0.365 0.887,0.54 0.892,0.668 0.006,0.147 -0.634,-0.123 -1.352,-0.51 -1.396,-0.751 -4.286,-3.514 -5.637,-6.189 -0.414,-0.819 -0.806,-1.894 -0.226,-2.695 0.869,-1.199 3.26,-1.52 3.416,-1.551 0.129,-0.025 0.092,-0.077 0.17,-0.174 0.304,-0.379 0.709,-0.502 1.182,-0.549 0.968,-0.094 1.922,-0.013 2.852,0.291 0.216,0.07 0.408,0.208 0.552,0.379 0.145,0.172 0.232,0.546 -0.062,0.59 -0.404,0.059 -1.965,-0.197 -4.407,0.115 -0.889,0.114 -1.877,0.468 -2.577,1.05 -0.696,0.578 0.128,2.01 0.448,2.595 0.353,0.645 1.707,2.579 1.967,2.925 0,0 0.294,-0.259 0.863,-0.681 1.298,-0.965 2.907,-0.913 4.342,-0.533 -0.268,-0.346 -3.305,-2.413 -3.253,-2.741 0.017,-0.105 0.66,0.067 1.533,0.162 2.751,0.301 3.838,-0.566 4.066,-0.969 0.237,-0.421 0.167,-0.931 -0.216,-1.2 -0.433,-0.305 -0.926,-0.443 -1.425,-0.598 -0.081,-0.025 0.456,-0.285 1.219,-0.043 0.182,0.057 0.354,-0.311 0.456,-0.436 0.245,-0.303 0.11,-0.382 -0.181,-0.576 -1.358,-0.903 -3.563,-1.415 -7.266,-1.263 -1.068,0.044 -3.46,0.436 -3.717,0.675 -0.187,0.171 0.112,0.5 0.216,0.651 0.142,0.208 0.901,1.105 0.182,0.766 -0.821,-0.388 -2.199,-1.41 -1.153,-2.254 1.061,-0.856 6.119,-1.191 8.896,-0.659 2.107,0.404 3.352,1.269 4.015,1.99 0.193,0.209 0.289,0.285 0.097,0.534 -0.183,0.236 -0.763,0.875 -0.752,0.938 0.015,0.094 0.229,0.131 0.443,0.448 0.348,0.517 0.157,1.218 -0.203,1.694 -0.932,1.235 -2.738,1.03 -4.082,1.075 2.591,1.686 4.963,3.783 6.762,6.311 0.216,0.303 0.423,0.613 0.622,0.928 0.157,0.25 0.228,0.293 0.504,0.401 2.642,1.033 6.967,3.491 7.253,3.506 -0.309,-0.463 -3.516,-4.107 -4.522,-5.708 -0.625,-0.995 -1.12,-2.106 -1.238,-3.289 -0.109,-1.083 0.115,-2.196 1.02,-2.894 0.2,-0.156 0.762,-0.418 1.048,-0.435 0.112,0.125 0.228,0.245 0.347,0.362 0.507,0.5 1.077,0.935 1.685,1.305 -0.2,-0.519 -0.389,-1.277 0.447,-1.257 0.704,0.016 1.314,0.31 2.093,0.645 0.778,0.336 3.344,1.252 2.192,2.428 0.685,0.151 1.379,0.286 2.083,0.288 0.179,10e-4 0.358,-0.007 0.536,-0.025 0.119,-0.089 0.246,-0.167 0.377,-0.237 0.285,-0.152 0.613,-0.237 0.88,-0.418 0.424,-0.287 -0.687,-0.977 -0.903,-1.112 -2.999,-1.878 -6.703,-3.469 -9.736,-4.007 -0.581,-0.103 -1.01,0.096 -0.71,0.73 0.136,0.287 0.315,0.55 0.479,0.82 0.266,0.439 -0.344,-0.038 -0.453,-0.146 -0.491,-0.491 -1.709,-1.944 -0.378,-2.181 0.895,-0.16 2.765,0.17 4.147,0.638 2.163,0.733 4.858,1.971 6.876,3.283 0.498,0.323 1.355,0.968 1.62,1.517 0.293,0.606 -0.237,1.017 -0.704,1.311 -0.165,0.105 0.108,0.564 0.154,0.769 0.068,0.293 0.088,0.598 0.037,0.896 -0.095,0.553 -0.463,1.021 -0.931,1.317 -0.846,0.537 -1.945,0.522 -2.901,0.378 0.743,0.638 2.838,2.703 3.103,2.983 0.647,0.682 2.133,2.843 2.668,3.692 0.893,-0.596 1.815,-0.275 2.663,0.185 0.415,-1.159 0.971,-2.698 2.206,-3.195 0.252,-0.101 0.519,-0.161 0.789,-0.181 0.251,-0.02 0.595,0.091 0.786,-0.062 0.461,-0.371 1.045,-0.574 1.636,-0.576 0.273,0 0.545,0.041 0.805,0.122 0.231,0.073 0.516,-0.139 0.76,-0.197 0.576,-0.137 1.225,-0.094 1.745,0.205 1.026,-0.544 2.402,-0.214 3.196,0.589 0.392,0.398 0.68,0.9 0.852,1.43 0.148,0.453 0.064,0.494 0.494,0.342 0.933,-0.329 4.069,-1.368 6.439,-1.202 1.764,0.124 9.459,3.87 12.061,5.632 0.32,0.217 1.925,1.25 1.953,1.682 0.056,0.871 -0.084,7.108 -0.263,7.183"
             style="fill:#292723;fill-opacity:1;fill-rule:nonzero;stroke:none"
             id="path63694"
             inkscape:connector-curvature="0" />
        </g>
        <g
           id="g63696"
           transform="translate(340.9016,508.7421)">
          <path
             d="m 0,0 c -0.233,0 -0.414,-0.228 -0.404,-0.508 0.01,-0.281 0.207,-0.508 0.439,-0.508 0.233,0 0.414,0.227 0.404,0.508 C 0.429,-0.228 0.233,0 0,0"
             style="fill:#292723;fill-opacity:1;fill-rule:nonzero;stroke:none"
             id="path63698"
             inkscape:connector-curvature="0" />
        </g>
        <g
           id="g63700"
           transform="translate(342.1424,509.5617)">
          <path
             d="M 0,0 C 0.009,-0.266 0.186,-0.482 0.395,-0.482 0.604,-0.482 0.766,-0.266 0.757,0 0.747,0.266 0.571,0.482 0.362,0.482 0.153,0.482 -0.009,0.266 0,0"
             style="fill:#292723;fill-opacity:1;fill-rule:nonzero;stroke:none"
             id="path63702"
             inkscape:connector-curvature="0" />
        </g>
        <g
           id="g63704"
           transform="translate(341.6549,511.3633)">
          <path
             d="m 0,0 c -0.009,0.259 -0.184,0.469 -0.39,0.469 -0.207,0 -0.367,-0.21 -0.358,-0.469 0.009,-0.259 0.184,-0.469 0.39,-0.469 0.207,0 0.367,0.21 0.358,0.469"
             style="fill:#292723;fill-opacity:1;fill-rule:nonzero;stroke:none"
             id="path63706"
             inkscape:connector-curvature="0" />
        </g>
        <g
           id="g63708"
           transform="translate(339.2726,510.2442)">
          <path
             d="m 0,0 c -0.182,0 -0.323,-0.188 -0.315,-0.42 0.008,-0.231 0.162,-0.42 0.344,-0.42 0.183,0 0.324,0.189 0.315,0.42 C 0.336,-0.188 0.182,0 0,0"
             style="fill:#292723;fill-opacity:1;fill-rule:nonzero;stroke:none"
             id="path63710"
             inkscape:connector-curvature="0" />
        </g>
        <g
           id="g63712"
           transform="translate(339.845,512.3103)">
          <path
             d="M 0,0 C -0.008,0.232 -0.162,0.42 -0.344,0.42 -0.527,0.42 -0.668,0.232 -0.66,0 c 0.008,-0.232 0.163,-0.42 0.345,-0.42 0.182,0 0.323,0.188 0.315,0.42"
             style="fill:#292723;fill-opacity:1;fill-rule:nonzero;stroke:none"
             id="path63714"
             inkscape:connector-curvature="0" />
        </g>
      </g>
    </g>
  </g>
</svg>
